<?xml version="1.0" encoding="utf-8"?>
<!-- Generator: Adobe Illustrator 16.0.0, SVG Export Plug-In . SVG Version: 6.00 Build 0)  -->
<!DOCTYPE svg PUBLIC "-//W3C//DTD SVG 1.1//EN" "http://www.w3.org/Graphics/SVG/1.1/DTD/svg11.dtd">
<svg version="1.1" id="Layer_1" xmlns="http://www.w3.org/2000/svg" xmlns:xlink="http://www.w3.org/1999/xlink" x="0px" y="0px"
	 width="500px" height="500px" viewBox="0 0 500 500" enable-background="new 0 0 500 500" xml:space="preserve">
<g>
	<path fill="#020202" d="M326.3,343H195.7c-11.4,0-20.7-9.3-20.7-20.7V191.7c0-11.4,9.3-20.7,20.7-20.7h130.5
		c11.4,0,20.7,9.3,20.7,20.7v130.5C347,333.7,337.7,343,326.3,343z M195.7,181c-5.9,0-10.7,4.8-10.7,10.7v130.5
		c0,5.9,4.8,10.7,10.7,10.7h130.5c5.9,0,10.7-4.8,10.7-10.7V191.7c0-5.9-4.8-10.7-10.7-10.7H195.7z"/>
</g>
<g>
	<path fill="#020202" d="M353.9,214h-33.8c-10,0-18.1-8.1-18.1-18.1v-33.8c0-10,8.1-18.1,18.1-18.1h33.8c10,0,18.1,8.1,18.1,18.1
		v33.8C372,205.9,363.9,214,353.9,214z M320.1,154c-4.5,0-8.1,3.6-8.1,8.1v33.8c0,4.5,3.6,8.1,8.1,8.1h33.8c4.5,0,8.1-3.6,8.1-8.1
		v-33.8c0-4.5-3.6-8.1-8.1-8.1H320.1z"/>
</g>
<g>
	<path fill="#020202" d="M353.9,370h-33.8c-10,0-18.1-8.1-18.1-18.1v-33.8c0-10,8.1-18.1,18.1-18.1h33.8c10,0,18.1,8.1,18.1,18.1
		v33.8C372,361.9,363.9,370,353.9,370z M320.1,310c-4.5,0-8.1,3.6-8.1,8.1v33.8c0,4.5,3.6,8.1,8.1,8.1h33.8c4.5,0,8.1-3.6,8.1-8.1
		v-33.8c0-4.5-3.6-8.1-8.1-8.1H320.1z"/>
</g>
<g>
	<path fill="#020202" d="M203.9,214h-33.8c-10,0-18.1-8.1-18.1-18.1v-33.8c0-10,8.1-18.1,18.1-18.1h33.8c10,0,18.1,8.1,18.1,18.1
		v33.8C222,205.9,213.9,214,203.9,214z M170.1,154c-4.5,0-8.1,3.6-8.1,8.1v33.8c0,4.5,3.6,8.1,8.1,8.1h33.8c4.5,0,8.1-3.6,8.1-8.1
		v-33.8c0-4.5-3.6-8.1-8.1-8.1H170.1z"/>
</g>
<g>
	<path fill="#020202" d="M203.9,370h-33.8c-10,0-18.1-8.1-18.1-18.1v-33.8c0-10,8.1-18.1,18.1-18.1h33.8c10,0,18.1,8.1,18.1,18.1
		v33.8C222,361.9,213.9,370,203.9,370z M170.1,310c-4.5,0-8.1,3.6-8.1,8.1v33.8c0,4.5,3.6,8.1,8.1,8.1h33.8c4.5,0,8.1-3.6,8.1-8.1
		v-33.8c0-4.5-3.6-8.1-8.1-8.1H170.1z"/>
</g>
</svg>
