<?xml version="1.0" encoding="utf-8"?>
<!-- Generator: Adobe Illustrator 16.0.0, SVG Export Plug-In . SVG Version: 6.00 Build 0)  -->
<!DOCTYPE svg PUBLIC "-//W3C//DTD SVG 1.1//EN" "http://www.w3.org/Graphics/SVG/1.1/DTD/svg11.dtd">
<svg version="1.1" id="Layer_1" xmlns="http://www.w3.org/2000/svg" xmlns:xlink="http://www.w3.org/1999/xlink" x="0px" y="0px"
	 width="500px" height="500px" viewBox="0 0 500 500" enable-background="new 0 0 500 500" xml:space="preserve">
<path fill="none" stroke="#020202" stroke-width="10" stroke-linecap="round" stroke-linejoin="round" stroke-miterlimit="10" d="
	M261.3,237.5"/>
<g>
	<g>
		<path fill="#020202" d="M347.9,182.8c-46.6,0-80.5-18.5-80.5-44s33.9-44,80.5-44s80.5,18.5,80.5,44S394.6,182.8,347.9,182.8z
			 M347.9,104.9c-39.5,0-70.5,14.9-70.5,34c0,19,31,34,70.5,34s70.5-14.9,70.5-34C418.4,119.8,387.5,104.9,347.9,104.9z"/>
	</g>
	<g>
		<path fill="#020202" d="M347.9,219c-46.6,0-80.5-18.5-80.5-44c0-2.8,2.2-5,5-5s5,2.2,5,5c0,19,31,34,70.5,34s70.5-14.9,70.5-34
			c0-2.8,2.2-5,5-5s5,2.2,5,5C428.4,200.5,394.6,219,347.9,219z"/>
	</g>
	<g>
		<path fill="#020202" d="M347.9,259c-46.6,0-80.5-18.5-80.5-44c0-2.8,2.2-5,5-5s5,2.2,5,5c0,19,31,34,70.5,34s70.5-14.9,70.5-34
			c0-2.8,2.2-5,5-5s5,2.2,5,5C428.4,240.5,394.6,259,347.9,259z"/>
	</g>
	<g>
		<path fill="#020202" d="M347.9,299.1c-46.6,0-80.5-18.5-80.5-44c0-2.8,2.2-5,5-5s5,2.2,5,5c0,19,31,34,70.5,34s70.5-14.9,70.5-34
			c0-2.8,2.2-5,5-5s5,2.2,5,5C428.4,280.6,394.6,299.1,347.9,299.1z"/>
	</g>
	<g>
		<path fill="#020202" d="M347.9,339.2c-46.6,0-80.5-18.5-80.5-44c0-2.8,2.2-5,5-5s5,2.2,5,5c0,19,31,34,70.5,34s70.5-14.9,70.5-34
			c0-2.8,2.2-5,5-5s5,2.2,5,5C428.4,320.7,394.6,339.2,347.9,339.2z"/>
	</g>
	<g>
		<path fill="#020202" d="M347.9,379.3c-46.6,0-80.5-18.5-80.5-44c0-2.8,2.2-5,5-5s5,2.2,5,5c0,19,31,34,70.5,34s70.5-14.9,70.5-34
			c0-2.8,2.2-5,5-5s5,2.2,5,5C428.4,360.8,394.6,379.3,347.9,379.3z"/>
	</g>
	<g>
		<path fill="#020202" d="M170.7,263c-46.6,0-80.5-18.5-80.5-44s33.9-44,80.5-44s80.5,18.5,80.5,44S217.3,263,170.7,263z M170.7,185
			c-39.5,0-70.5,14.9-70.5,34c0,19,31,34,70.5,34s70.5-14.9,70.5-34C241.2,199.9,210.2,185,170.7,185z"/>
	</g>
	<g>
		<path fill="#020202" d="M170.7,299.1c-46.6,0-80.5-18.5-80.5-44c0-2.8,2.2-5,5-5s5,2.2,5,5c0,19,31,34,70.5,34s70.5-14.9,70.5-34
			c0-2.8,2.2-5,5-5s5,2.2,5,5C251.2,280.6,217.3,299.1,170.7,299.1z"/>
	</g>
	<g>
		<path fill="#020202" d="M170.7,339.2c-46.6,0-80.5-18.5-80.5-44c0-2.8,2.2-5,5-5s5,2.2,5,5c0,19,31,34,70.5,34s70.5-14.9,70.5-34
			c0-2.8,2.2-5,5-5s5,2.2,5,5C251.2,320.7,217.3,339.2,170.7,339.2z"/>
	</g>
	<g>
		<path fill="#020202" d="M170.7,379.3c-46.6,0-80.5-18.5-80.5-44c0-2.8,2.2-5,5-5s5,2.2,5,5c0,19,31,34,70.5,34s70.5-14.9,70.5-34
			c0-2.8,2.2-5,5-5s5,2.2,5,5C251.2,360.8,217.3,379.3,170.7,379.3z"/>
	</g>
</g>
</svg>
