<?xml version="1.0" encoding="utf-8"?>
<!-- Generator: Adobe Illustrator 16.0.0, SVG Export Plug-In . SVG Version: 6.00 Build 0)  -->
<!DOCTYPE svg PUBLIC "-//W3C//DTD SVG 1.1//EN" "http://www.w3.org/Graphics/SVG/1.1/DTD/svg11.dtd">
<svg version="1.1" id="Layer_1" xmlns="http://www.w3.org/2000/svg" xmlns:xlink="http://www.w3.org/1999/xlink" x="0px" y="0px"
	 width="500px" height="500px" viewBox="0 0 500 500" enable-background="new 0 0 500 500" xml:space="preserve">
<g>
	<path d="M431,223h-1.3l1,0.5l0.1,0.1l0.1-0.1l0.9-0.5L431,223z"/>
	<path d="M447,223c0-0.2,0-0.4-0.1-0.6c0-0.1,0-0.2-0.1-0.3c0-0.1-0.1-0.2-0.1-0.3c-0.1-0.2-0.1-0.3-0.2-0.5c0,0,0,0,0-0.1
		c-0.5-1-1.3-1.8-2.2-2.2L387,190.4v-62.9c0-0.2,0-0.3,0-0.5c0-0.2,0-0.4-0.1-0.6c0-0.1,0-0.2-0.1-0.3c0-0.1-0.1-0.2-0.1-0.3
		c-0.1-0.2-0.1-0.3-0.2-0.5c0,0,0,0,0-0.1c-0.5-1-1.3-1.8-2.2-2.2l-115-57.6c-1.4-0.7-3-0.7-4.5,0l-115,56.6c0,0,0,0-0.1,0
		c0,0-0.1,0-0.1,0c-0.2,0.1-0.3,0.2-0.5,0.3c0,0,0,0,0,0c-0.2,0.1-0.4,0.3-0.5,0.4c-0.2,0.2-0.3,0.3-0.5,0.5c0,0,0,0,0,0
		c-0.1,0.2-0.3,0.3-0.3,0.5c-0.1,0.1-0.2,0.3-0.2,0.4c0,0,0,0,0,0c0,0,0,0,0,0.1c-0.1,0.1-0.2,0.3-0.2,0.4c0,0.1-0.1,0.2-0.1,0.3
		c0,0.1-0.1,0.2-0.1,0.3c0,0.2-0.1,0.3-0.1,0.5c0,0,0,0,0,0c0,0.1,0,0.1,0,0.2c0,0.1,0,0.3,0,0.4c0,0,0,0,0,0v76.6L63.8,244
		c0,0,0,0-0.1,0c0,0-0.1,0-0.1,0c-0.2,0.1-0.3,0.2-0.5,0.3c0,0,0,0,0,0c-0.2,0.1-0.4,0.3-0.5,0.4c-0.2,0.2-0.3,0.3-0.5,0.5
		c0,0,0,0,0,0c-0.1,0.2-0.3,0.3-0.3,0.5c-0.1,0.1-0.2,0.3-0.2,0.4c0,0,0,0,0,0c0,0,0,0,0,0.1c-0.1,0.1-0.2,0.3-0.2,0.4
		c0,0.1-0.1,0.2-0.1,0.3c0,0.1-0.1,0.2-0.1,0.3c0,0.2-0.1,0.3-0.1,0.5c0,0,0,0,0,0c0,0.1,0,0.1,0,0.2c0,0.1,0,0.3,0,0.4c0,0,0,0,0,0
		v128.1c0,1.9,1.1,3.6,2.8,4.5l115,56.6c0.7,0.3,1.5,0.5,2.2,0.5c0.7,0,1.5-0.2,2.2-0.5l82.5-39.9l5.7-2.8l0.1-0.1l5.6-2.7l4.1-2
		l43.5,21.4c0.7,0.3,1.5,0.5,2.2,0.5c0.7,0,1.5-0.2,2.2-0.5l115-55.6c1.7-0.8,2.8-2.6,2.8-4.5V223.5C447,223.4,447,223.2,447,223z
		 M387,201.6l42.8,21.4h1.3l0.9,0l-0.9,0.5l-0.1,0.1L387,245.7V201.6z M163.2,126.7L163.2,126.7L163.2,126.7l20.8-10.3l11.9-5.8
		L267,75.4L370.7,127h0l0,0.3l0.1,0.1l0,0l-0.1-0.4h0.3l0.8,0l-0.8,0.5l0,0l-0.1,0.1l-66,33.3l-2.1,1.1l-10.3,5.2l-1.3,0.7
		L267,180.2L163.1,127l0-0.1l0-0.1l0,0l0-0.1V126.7L163.2,126.7L163.2,126.7z M163,126.7l0,0.3l0-0.1l0.1,0.1H163V126.7z M157,134.8
		l105,54v114.4l-23-11.3l-5-2.5l-3-1.5l-2,1v-2l-3.6-1.8l-5.6-2.8L157,251.5V134.8z M176,425.2L71,373.5V256.8l105,54V425.2z
		 M181,302L77.8,249h-1.4l0.7-0.4l0.1,0l69.8-34.3v40.4c0,1.9,1.1,3.6,2.8,4.5l58.8,28.9L181,302z M291,374.5l-9.7,4.7l-11.4,5.5
		l-4.1,2l-5.6,2.7l-0.2,0.1l-5.7,2.8l-68.3,33V310.7l33.8-17.1l9.2,4.5l10,4.9l25.8,12.7c0.7,0.3,1.5,0.5,2.2,0.5
		c0.7,0,1.5-0.2,2.2-0.5l21.8-10.5V374.5z M322,399.2l-29.3-14.4l5.5-2.6c1.7-0.8,2.8-2.6,2.8-4.5v-77.3l11.7-5.7l0,0l5.6-2.7h0
		l0.1,0l3.5-1.7V399.2z M316.4,282L316.4,282l-0.1,0l-1.3,0.6l-2,1l-5.6,2.7l0,0l-5.6,2.7l-0.1,0h0l-0.6,0.3l-5,2.4l-5,2.4l-19,9.2
		V188.7l105-53v116.9l-49,23.6 M437,348.5l-105,50.7V285.4l52.2-25.2c1.3-0.6,2.3-1.8,2.7-3.2l50.2-25.3V348.5z"/>
</g>
<g>
	<line fill="none" x1="327" y1="407" x2="327" y2="402"/>
	<line fill="none" x1="327" y1="282" x2="327" y2="282"/>
	<path fill="none" d="M325.9,277.2l0.1,0C326,277.1,325.9,277.1,325.9,277.2L325.9,277.2C325.9,277.1,325.9,277.1,325.9,277.2
		C325.9,277.1,325.9,277.1,325.9,277.2"/>
</g>
<g>
	<path fill="none" d="M325.9,277.2l0.1,0l0,0v0l0,0l0,0h0h0L325.9,277.2C325.9,277.1,325.9,277.1,325.9,277.2
		C325.9,277.1,325.9,277.1,325.9,277.2L325.9,277.2C325.9,277.1,325.9,277.1,325.9,277.2C325.9,277.1,325.9,277.1,325.9,277.2
		C325.8,277.1,325.8,277.2,325.9,277.2L325.9,277.2c-0.1,0-0.1,0-0.1,0s0,0,0,0c0,0,0,0,0,0"/>
	<polygon points="431.9,223 431,223.5 430.9,223.6 430.7,223.5 429.8,223 431,223 	"/>
	<polygon points="316.3,282 316.3,282 316.3,282 316.3,281.9 	"/>
	<line x1="316.4" y1="282" x2="316.3" y2="282"/>
	<path fill="none" d="M325.9,277.2l0.1,0C326,277.1,325.9,277.1,325.9,277.2L325.9,277.2C325.9,277.1,325.9,277.1,325.9,277.2
		C325.9,277.1,325.9,277.1,325.9,277.2"/>
</g>
<g>
	<polygon points="77.8,249 76.4,249 77.1,248.6 	"/>
	<line x1="229" y1="287" x2="225.4" y2="285.2"/>
	<polygon points="231,287.9 229,289 229,287 	"/>
</g>
<g>
	<line fill="none" x1="181" y1="433" x2="181" y2="428"/>
	<line fill="none" x1="181" y1="313" x2="181" y2="308"/>
</g>
<g>
	<path fill="none" d="M229,287l-3.6-1.8 M229,287l-3.6-1.8 M229,287l-3.6-1.8 M234,289.4l-3-1.5 M229,287v2l2-1L229,287z M229,287
		l-3.6-1.8 M234,289.4l-3-1.5 M229,287v2l2-1L229,287z M229,287l-3.6-1.8 M234,289.4l-3-1.5 M229,287l-3.6-1.8 M234,289.4l-3-1.5
		 M229,287l-3.6-1.8 M163,126.7v0.3h0L163,126.7z M315,282.6l1.3-0.6l0-0.1L315,282.6z M326.1,277L326.1,277L326.1,277l-0.1,0.1v0
		L326.1,277L326.1,277L326.1,277z M234,289.4l-3-1.5 M229,287v2l2-1L229,287z M229,287l-3.6-1.8 M229,287l-3.6-1.8 M234,289.4
		l-3-1.5 M229,287l-3.6-1.8 M234,289.4l-3-1.5 M371,127h-0.3l0.1,0.4l0,0l-0.1-0.1l0-0.3h0L267,75.4l-71.2,35.2l71.2-35l103.7,51.9
		l0.1,0l0.1,0.1l-66,33.3l-2.1,1.1L267,180l-103.7-53.3l0,0l0,0.1l0,0.1l0,0l0,0.1l0,0.1L267,180.2l24.2-12.3l1.3-0.7l10.3-5.2
		l2.1-1.1l66-33.3l0.1-0.1l0,0l0.8-0.5L371,127z M163,126.9L163,126.9L163,126.9L163,126.9z M229,287l-3.6-1.8 M234,289.4l-3-1.5
		 M229,287v2l2-1L229,287z M229,287l-3.6-1.8 M229,287l-3.6-1.8 M229,287l-3.6-1.8 M229,287l-3.6-1.8"/>
</g>
<g>
	<polygon points="371.8,127 371,127.5 371,127.5 370.9,127.6 304.9,160.9 302.8,162 292.5,167.2 291.2,167.9 267,180.2 163.1,127 
		163.2,127 163.2,126.9 163.1,126.8 163.2,126.9 267,180.1 302.8,161.9 304.9,160.9 370.7,127.5 370.8,127.4 370.9,127.4 370.7,127 
		371,127 	"/>
	<polygon points="163.1,127 163,127 163,126.9 	"/>
</g>
<g>
	<line fill="none" x1="267" y1="311" x2="267" y2="306"/>
	<line fill="none" x1="267" y1="191" x2="267" y2="186"/>
</g>
</svg>
