<?xml version="1.0" encoding="utf-8"?>
<!-- Generator: Adobe Illustrator 16.0.0, SVG Export Plug-In . SVG Version: 6.00 Build 0)  -->
<!DOCTYPE svg PUBLIC "-//W3C//DTD SVG 1.1//EN" "http://www.w3.org/Graphics/SVG/1.1/DTD/svg11.dtd">
<svg version="1.1" id="Layer_1" xmlns="http://www.w3.org/2000/svg" xmlns:xlink="http://www.w3.org/1999/xlink" x="0px" y="0px"
	 width="500px" height="500px" viewBox="4160 0 500 500" enable-background="new 4160 0 500 500" xml:space="preserve">
<g>
	<g>
		<path fill="#020202" d="M4573.5,365.5c0,8.3-6.7,15-15,15h-258c-8.3,0-15-6.7-15-15v-258c0-8.3,6.7-15,15-15h258
			c8.3,0,15,6.7,15,15V365.5z M4563.5,107.5c0-2.8-2.2-5-5-5h-258c-2.8,0-5,2.2-5,5v258c0,2.8,2.2,5,5,5h258c2.8,0,5-2.2,5-5V107.5z
			"/>
	</g>
	<g>
		<path fill="#020202" d="M4429.5,380c-2.8,0-5-2.2-5-5V97c0-2.8,2.2-5,5-5s5,2.2,5,5v278C4434.5,377.8,4432.3,380,4429.5,380z"/>
	</g>
	<g>
		<path fill="#020202" d="M4569,241.5h-278c-2.8,0-5-2.2-5-5s2.2-5,5-5h278c2.8,0,5,2.2,5,5S4571.8,241.5,4569,241.5z"/>
	</g>
	<g>
		<path fill="#020202" d="M4360.5,203c-2.8,0-5-2.2-5-5v-59c0-2.8,2.2-5,5-5s5,2.2,5,5v59C4365.5,200.8,4363.3,203,4360.5,203z"/>
	</g>
	<g>
		<path fill="#020202" d="M4390,174.5h-59c-2.8,0-5-2.2-5-5s2.2-5,5-5h59c2.8,0,5,2.2,5,5S4392.8,174.5,4390,174.5z"/>
	</g>
	<g>
		<path fill="#020202" d="M4528,174.5h-59c-2.8,0-5-2.2-5-5s2.2-5,5-5h59c2.8,0,5,2.2,5,5S4530.8,174.5,4528,174.5z"/>
	</g>
	<g>
		<path fill="#020202" d="M4528,298.5h-59c-2.8,0-5-2.2-5-5s2.2-5,5-5h59c2.8,0,5,2.2,5,5S4530.8,298.5,4528,298.5z"/>
	</g>
	<g>
		<path fill="#020202" d="M4528,321.5h-59c-2.8,0-5-2.2-5-5s2.2-5,5-5h59c2.8,0,5,2.2,5,5S4530.8,321.5,4528,321.5z"/>
	</g>
	<g>
		<path fill="#020202" d="M4340,334.7c-1.3,0-2.6-0.5-3.5-1.5c-2-2-2-5.1,0-7.1l41.7-41.7c2-2,5.1-2,7.1,0c2,2,2,5.1,0,7.1
			l-41.7,41.7C4342.6,334.2,4341.3,334.7,4340,334.7z"/>
	</g>
	<g>
		<path fill="#020202" d="M4381,334.7c-1.3,0-2.6-0.5-3.5-1.5l-41.7-41.7c-2-2-2-5.1,0-7.1c2-2,5.1-2,7.1,0l41.7,41.7
			c2,2,2,5.1,0,7.1C4383.6,334.2,4382.3,334.7,4381,334.7z"/>
	</g>
</g>
</svg>
