<?xml version="1.0" encoding="utf-8"?>
<!-- Generator: Adobe Illustrator 16.0.0, SVG Export Plug-In . SVG Version: 6.00 Build 0)  -->
<!DOCTYPE svg PUBLIC "-//W3C//DTD SVG 1.1//EN" "http://www.w3.org/Graphics/SVG/1.1/DTD/svg11.dtd">
<svg version="1.1" id="Layer_1" xmlns="http://www.w3.org/2000/svg" xmlns:xlink="http://www.w3.org/1999/xlink" x="0px" y="0px"
	 width="500px" height="500px" viewBox="520 0 500 500" enable-background="new 520 0 500 500" xml:space="preserve">
<g>
	<path fill="#020202" d="M853,418.5H681c-2.8,0-5.5-2.7-5.5-5.5V169c0-2.8,2.2-5,5-5s5,2.2,5,5v239.5h162V169c0-2.8,2.2-5,5-5
		s5,2.2,5,5v244C857.5,415.8,855.8,418.5,853,418.5z"/>
</g>
<g>
	<path fill="#020202" d="M941,418.5H833c-2.8,0-5-2.2-5-5s2.2-5,5-5h102.5v-172H877c-2.8,0-5-2.2-5-5s2.2-5,5-5h64
		c2.8,0,4.5,1.7,4.5,4.5v182C945.5,415.8,943.8,418.5,941,418.5z"/>
</g>
<g>
	<path fill="none" stroke="#020202" stroke-width="10" stroke-linecap="round" stroke-linejoin="round" stroke-miterlimit="10" d="
		M853,248"/>
</g>
<g>
	<path fill="#020202" d="M701,418.5H593c-2.8,0-5.5-2.7-5.5-5.5V231c0-2.8,2.7-4.5,5.5-4.5h65c2.8,0,5,2.2,5,5s-2.2,5-5,5h-60.5v172
		H701c2.8,0,5,2.2,5,5S703.8,418.5,701,418.5z"/>
</g>
<g>
	<path fill="none" stroke="#020202" stroke-width="10" stroke-linecap="round" stroke-linejoin="round" stroke-miterlimit="10" d="
		M681,248"/>
</g>
<g>
	<path fill="#020202" d="M898.3,201.5c-1.3,0-2.6-0.5-3.5-1.5L767.5,72.8L640.2,200c-2,2-5.1,2-7.1,0c-2-2-2-5.1,0-7.1L764,62.2
		c2-2,5.1-2,7.1,0L901.8,193c2,2,2,5.1,0,7.1C900.9,201,899.6,201.5,898.3,201.5z"/>
</g>
<g>
	<path fill="#020202" d="M756.5,251.5c0,2.8-2.2,5-5,5h-42c-2.8,0-5-2.2-5-5v-53c0-2.8,2.2-5,5-5h42c2.8,0,5,2.2,5,5V251.5z
		 M714.5,246.5h32v-43h-32V246.5z"/>
</g>
<g>
	<path fill="#020202" d="M662.5,310.5c0,2.8-2.2,5-5,5h-42c-2.8,0-5-2.2-5-5v-53c0-2.8,2.2-5,5-5h42c2.8,0,5,2.2,5,5V310.5z
		 M620.5,305.5h32v-43h-32V305.5z"/>
</g>
<g>
	<path fill="#020202" d="M662.5,382.5c0,2.8-2.2,5-5,5h-42c-2.8,0-5-2.2-5-5v-53c0-2.8,2.2-5,5-5h42c2.8,0,5,2.2,5,5V382.5z
		 M620.5,377.5h32v-43h-32V377.5z"/>
</g>
<g>
	<path fill="#020202" d="M923.5,310.5c0,2.8-2.2,5-5,5h-42c-2.8,0-5-2.2-5-5v-53c0-2.8,2.2-5,5-5h42c2.8,0,5,2.2,5,5V310.5z
		 M881.5,305.5h32v-43h-32V305.5z"/>
</g>
<g>
	<path fill="#020202" d="M923.5,382.5c0,2.8-2.2,5-5,5h-42c-2.8,0-5-2.2-5-5v-53c0-2.8,2.2-5,5-5h42c2.8,0,5,2.2,5,5V382.5z
		 M881.5,377.5h32v-43h-32V377.5z"/>
</g>
<g>
	<path fill="#020202" d="M827.5,251.5c0,2.8-2.2,5-5,5h-42c-2.8,0-5-2.2-5-5v-53c0-2.8,2.2-5,5-5h42c2.8,0,5,2.2,5,5V251.5z
		 M785.5,246.5h32v-43h-32V246.5z"/>
</g>
<g>
	<path fill="#020202" d="M810.5,412.5c0,2.8-2.2,5-5,5h-81c-2.8,0-5-2.2-5-5v-114c0-2.8,2.2-5,5-5h81c2.8,0,5,2.2,5,5V412.5z
		 M729.5,407.5h71v-104h-71V407.5z"/>
</g>
<g>
	<path fill="#020202" d="M766.5,418c-2.8,0-5-2.2-5-5V305c0-2.8,2.2-5,5-5s5,2.2,5,5v108C771.5,415.8,769.3,418,766.5,418z"/>
</g>
</svg>
