<?xml version="1.0" encoding="utf-8"?>
<!-- Generator: Adobe Illustrator 16.0.0, SVG Export Plug-In . SVG Version: 6.00 Build 0)  -->
<!DOCTYPE svg PUBLIC "-//W3C//DTD SVG 1.1//EN" "http://www.w3.org/Graphics/SVG/1.1/DTD/svg11.dtd">
<svg version="1.1" id="Layer_1" xmlns="http://www.w3.org/2000/svg" xmlns:xlink="http://www.w3.org/1999/xlink" x="0px" y="0px"
	 width="500px" height="500px" viewBox="0 0 500 500" enable-background="new 0 0 500 500" xml:space="preserve">
<g>
	<g>
		<path fill="#020202" d="M151,190.1c-13.5,0-24.5-11-24.5-24.5c0-13.5,11-24.5,24.5-24.5c13.5,0,24.5,11,24.5,24.5
			C175.4,179.2,164.5,190.1,151,190.1z M151,151.2c-8,0-14.5,6.5-14.5,14.5s6.5,14.5,14.5,14.5s14.5-6.5,14.5-14.5
			S158.9,151.2,151,151.2z"/>
	</g>
	<g>
		<path fill="#020202" d="M250,190.1c-13.5,0-24.5-11-24.5-24.5c0-13.5,11-24.5,24.5-24.5c13.5,0,24.5,11,24.5,24.5
			C274.5,179.2,263.5,190.1,250,190.1z M250,151.2c-8,0-14.5,6.5-14.5,14.5s6.5,14.5,14.5,14.5s14.5-6.5,14.5-14.5
			S258,151.2,250,151.2z"/>
	</g>
	<g>
		<path fill="#020202" d="M349,190.1c-13.5,0-24.5-11-24.5-24.5c0-13.5,11-24.5,24.5-24.5s24.5,11,24.5,24.5
			C373.5,179.2,362.5,190.1,349,190.1z M349,151.2c-8,0-14.5,6.5-14.5,14.5s6.5,14.5,14.5,14.5c8,0,14.5-6.5,14.5-14.5
			S357,151.2,349,151.2z"/>
	</g>
	<g>
		<path fill="#020202" d="M151,277.7c-13.5,0-24.5-11-24.5-24.5s11-24.5,24.5-24.5c13.5,0,24.5,11,24.5,24.5S164.5,277.7,151,277.7z
			 M151,238.7c-8,0-14.5,6.5-14.5,14.5c0,8,6.5,14.5,14.5,14.5s14.5-6.5,14.5-14.5C165.4,245.2,158.9,238.7,151,238.7z"/>
	</g>
	<g>
		<path fill="#020202" d="M250,277.7c-13.5,0-24.5-11-24.5-24.5s11-24.5,24.5-24.5c13.5,0,24.5,11,24.5,24.5S263.5,277.7,250,277.7z
			 M250,238.7c-8,0-14.5,6.5-14.5,14.5c0,8,6.5,14.5,14.5,14.5s14.5-6.5,14.5-14.5C264.5,245.2,258,238.7,250,238.7z"/>
	</g>
	<g>
		<path fill="#020202" d="M349,277.7c-13.5,0-24.5-11-24.5-24.5s11-24.5,24.5-24.5s24.5,11,24.5,24.5S362.5,277.7,349,277.7z
			 M349,238.7c-8,0-14.5,6.5-14.5,14.5c0,8,6.5,14.5,14.5,14.5c8,0,14.5-6.5,14.5-14.5C363.5,245.2,357,238.7,349,238.7z"/>
	</g>
	<g>
		<path fill="#020202" d="M151,365.2c-13.5,0-24.5-11-24.5-24.5c0-13.5,11-24.5,24.5-24.5c13.5,0,24.5,11,24.5,24.5
			C175.4,354.2,164.5,365.2,151,365.2z M151,326.3c-8,0-14.5,6.5-14.5,14.5c0,8,6.5,14.5,14.5,14.5s14.5-6.5,14.5-14.5
			C165.4,332.8,158.9,326.3,151,326.3z"/>
	</g>
	<g>
		<path fill="#020202" d="M250,365.2c-13.5,0-24.5-11-24.5-24.5c0-13.5,11-24.5,24.5-24.5c13.5,0,24.5,11,24.5,24.5
			C274.5,354.2,263.5,365.2,250,365.2z M250,326.3c-8,0-14.5,6.5-14.5,14.5c0,8,6.5,14.5,14.5,14.5s14.5-6.5,14.5-14.5
			C264.5,332.8,258,326.3,250,326.3z"/>
	</g>
	<g>
		<path fill="#020202" d="M349,365.2c-13.5,0-24.5-11-24.5-24.5c0-13.5,11-24.5,24.5-24.5s24.5,11,24.5,24.5
			C373.5,354.2,362.5,365.2,349,365.2z M349,326.3c-8,0-14.5,6.5-14.5,14.5c0,8,6.5,14.5,14.5,14.5c8,0,14.5-6.5,14.5-14.5
			C363.5,332.8,357,326.3,349,326.3z"/>
	</g>
</g>
</svg>
