<?xml version="1.0" encoding="utf-8"?>
<!-- Generator: Adobe Illustrator 16.0.0, SVG Export Plug-In . SVG Version: 6.00 Build 0)  -->
<!DOCTYPE svg PUBLIC "-//W3C//DTD SVG 1.1//EN" "http://www.w3.org/Graphics/SVG/1.1/DTD/svg11.dtd">
<svg version="1.1" id="Layer_1" xmlns="http://www.w3.org/2000/svg" xmlns:xlink="http://www.w3.org/1999/xlink" x="0px" y="0px"
	 width="500px" height="500px" viewBox="0 0 500 500" enable-background="new 0 0 500 500" xml:space="preserve">
<g>
	<g>
		<g>
			<path fill="#020202" d="M92.4,372.2c-2.8,0-5-2.2-5-5c0-11.7,2.4-40.3,24.9-54.8c2.3-2,4.6-3.6,7-4.9l39.8-21.7
				c3.6-2,5.9-5.8,5.9-9.8v-14.6c-3.1-4.1-11.5-16.2-15.6-32.1c-4.3-3.5-6.7-8.7-6.7-14.2v-17.8c0-4.4,1.6-8.6,4.5-11.9v-23.8
				c0-2.8,2.2-5,5-5s5,2.2,5,5v25.8c0,1.4-0.6,2.8-1.7,3.7c-1.8,1.6-2.8,3.8-2.8,6.2V215c0,2.8,1.5,5.4,3.9,7
				c1.1,0.7,1.8,1.8,2.1,3.1c4.2,18,15,31.1,15.1,31.3c0.8,0.9,1.2,2,1.2,3.2v16.3c0,7.8-4.2,14.9-11.1,18.6l-39.8,21.7
				c-1.8,1-3.6,2.3-5.5,3.9c-0.2,0.2-0.4,0.3-0.6,0.5c-18.6,11.8-20.6,36.5-20.6,46.5C97.4,369.9,95.1,372.2,92.4,372.2z"/>
		</g>
		<g>
			<path fill="#020202" d="M309.2,372.2H92.4c-2.8,0-5-2.2-5-5s2.2-5,5-5h211.7c-1.9-29.2-19.7-41-20.5-41.6
				c-0.2-0.1-0.4-0.3-0.6-0.5c-1.9-1.6-3.7-2.9-5.5-3.9l-39.7-21.7c-6.8-3.7-11.1-10.9-11.1-18.6v-16.3c0-1.2,0.4-2.3,1.2-3.2
				c0.1-0.1,11-13.3,15.1-31.3c0.3-1.3,1.1-2.4,2.1-3.1c2.4-1.6,3.9-4.2,3.9-7v-17.8c0-2.4-1-4.5-2.8-6.2c-1.1-0.9-1.7-2.3-1.7-3.7
				v-25.8c0-0.3,0-0.5,0.1-0.8c0.1-0.4,1.6-11.7-6.6-21.1c-7.6-8.8-21.2-13.2-40.3-13.2c-0.1,0-0.3,0-0.4,0
				c-0.2,0-18.9-1.3-30.6,9.5c-6.4,5.9-9.6,14.5-9.6,25.6c0,2.8-2.2,5-5,5s-5-2.2-5-5c0-14,4.3-25.1,12.8-33
				c14.3-13.2,35.4-12.2,37.9-12.1c22.2,0,38.3,5.7,47.8,16.8c10.2,11.9,9.1,25.8,8.8,28.5v23.4c2.9,3.3,4.5,7.6,4.5,11.9V215
				c0,5.5-2.5,10.7-6.7,14.2c-4.1,16-12.5,28.1-15.6,32.1v14.6c0,4.1,2.3,7.9,5.9,9.9l39.8,21.7c2.4,1.3,4.7,2.9,7,5
				c3.2,2.2,24.9,18.3,24.9,54.8C314.2,369.9,312,372.2,309.2,372.2z"/>
		</g>
	</g>
</g>
<g>
	<g>
		<g>
			<path fill="#020202" d="M255.1,301.4c-1.8,0-3.5-1-4.4-2.7c-1.3-2.4-0.3-5.5,2.1-6.7l24.9-13c2.8-1.5,4.5-4.5,4.5-7.7V259
				c-2.8-3.7-9.7-13.9-13.2-27.2c-3.7-3.1-5.8-7.7-5.8-12.5v-15.2c0-3.8,1.4-7.5,3.8-10.4v-20c0-2.8,2.2-5,5-5s5,2.2,5,5v22
				c0,1.4-0.6,2.8-1.7,3.7c-1.4,1.2-2.2,2.9-2.2,4.7v15.2c0,2.1,1.1,4.2,3,5.4c1.1,0.7,1.8,1.8,2.1,3.1
				c3.5,15.2,12.6,26.2,12.7,26.3c0.8,0.9,1.2,2,1.2,3.2v13.9c0,6.9-3.8,13.2-9.8,16.5l-25,13.1
				C256.7,301.2,255.9,301.4,255.1,301.4z"/>
		</g>
		<g>
			<path fill="#020202" d="M406,354h-96.7c-2.8,0-5-2.2-5-5s2.2-5,5-5h91.5c-1.9-24.2-16.9-34-17-34.1c-0.2-0.1-0.4-0.3-0.6-0.5
				c-1.6-1.4-3.1-2.4-4.6-3.3l-33.9-18.5c-6.1-3.3-9.8-9.6-9.8-16.5v-13.9c0-1.2,0.4-2.3,1.2-3.2c0.1-0.1,9.2-11.3,12.7-26.3
				c0.3-1.3,1.1-2.4,2.1-3.1c1.9-1.2,3-3.2,3-5.4v-15.2c0-1.8-0.8-3.5-2.2-4.7c-1.1-0.9-1.7-2.3-1.7-3.7v-22c0-0.3,0-0.5,0.1-0.8
				c0.1-0.4,1.3-9.6-5.4-17.4c-6.3-7.3-17.7-11-33.8-11c-0.1,0-0.3,0-0.4,0c-0.1,0-15.8-1.1-25.5,7.9c-5.3,4.9-7.9,12-7.9,21.3
				c0,2.8-2.2,5-5,5s-5-2.2-5-5c0-12.2,3.8-21.8,11.2-28.7c12.4-11.4,30.5-10.6,32.8-10.5c19.1,0,33,4.9,41.3,14.6
				c8.8,10.3,8,22.3,7.7,24.8v19.7c2.4,2.9,3.8,6.6,3.8,10.4v15.2c0,4.8-2.1,9.4-5.8,12.5c-3.5,13.4-10.4,23.5-13.2,27.2v12.2
				c0,3.2,1.8,6.2,4.6,7.8l33.9,18.5c2.1,1.1,4.1,2.5,6.1,4.3c3,2,21.5,16,21.5,47.3C411,351.8,408.7,354,406,354z"/>
		</g>
	</g>
</g>
</svg>
