<?xml version="1.0" encoding="utf-8"?>
<!-- Generator: Adobe Illustrator 16.0.0, SVG Export Plug-In . SVG Version: 6.00 Build 0)  -->
<!DOCTYPE svg PUBLIC "-//W3C//DTD SVG 1.1//EN" "http://www.w3.org/Graphics/SVG/1.1/DTD/svg11.dtd">
<svg version="1.1" id="Layer_1" xmlns="http://www.w3.org/2000/svg" xmlns:xlink="http://www.w3.org/1999/xlink" x="0px" y="0px"
	 width="500px" height="500px" viewBox="0 0 500 500" enable-background="new 0 0 500 500" xml:space="preserve">
<g>
	<g>
		<path fill="#020202" d="M175.6,388.1c-1.3,0-2.6-0.5-3.5-1.5l-57.9-57.9c-0.9-0.9-1.5-2.2-1.5-3.5s0.5-2.6,1.5-3.5L343.6,92.1
			c2-2,5.1-2,7.1,0l57.9,57.9c0.9,0.9,1.5,2.2,1.5,3.5s-0.5,2.6-1.5,3.5L179.1,386.7C178.2,387.6,176.9,388.1,175.6,388.1z
			 M124.7,325.2l50.9,50.9L398,153.6l-50.9-50.9L124.7,325.2z"/>
	</g>
	<g>
		<path fill="#020202" d="M95.9,409.9c-1.3,0-2.6-0.5-3.5-1.5c-1.3-1.3-1.8-3.1-1.3-4.8l21.5-79.4c0.7-2.7,3.5-4.2,6.1-3.5
			c2.7,0.7,4.2,3.5,3.5,6.1l-19.2,71l71-19.2c2.7-0.7,5.4,0.9,6.1,3.5c0.7,2.7-0.9,5.4-3.5,6.1l-79.4,21.5
			C96.8,409.8,96.3,409.9,95.9,409.9z"/>
	</g>
	<g>
		<path fill="#020202" d="M360.9,202.9c-1.3,0-2.6-0.5-3.5-1.5l-57.9-57.9c-2-2-2-5.1,0-7.1c2-2,5.1-2,7.1,0l57.9,57.9
			c2,2,2,5.1,0,7.1C363.4,202.4,362.1,202.9,360.9,202.9z"/>
	</g>
	<g>
		<path fill="#020202" d="M146.6,359.2c-1.3,0-2.6-0.5-3.5-1.5c-2-2-2-5.1,0-7.1l185.3-185.3c2-2,5.1-2,7.1,0c2,2,2,5.1,0,7.1
			L150.2,357.7C149.2,358.7,147.9,359.2,146.6,359.2z"/>
	</g>
</g>
</svg>
