<?xml version="1.0" ?><!DOCTYPE svg  PUBLIC '-//W3C//DTD SVG 1.1//EN'  'http://www.w3.org/Graphics/SVG/1.1/DTD/svg11.dtd'><svg enable-background="new 0 0 512 512" height="512px" version="1.1" viewBox="0 0 512 512" width="512px" xml:space="preserve" xmlns="http://www.w3.org/2000/svg" xmlns:xlink="http://www.w3.org/1999/xlink"><g><g id="Guides"/><g id="Layer_2"><g><path d="M507,256.879c0,138.066-111.934,250-250,250c-138.067,0-250-111.934-250-250      c0-138.067,111.933-250,250-250C395.066,6.879,507,118.812,507,256.879L507,256.879z M507,256.879" fill="#DC4F42"/><path d="M94.04,268.063c-0.892,43.02,28.745,84.059,69.501,97.441c38.385,12.909,85.582,3.264,111.128-29.615      c18.648-23.044,22.892-53.747,20.868-82.427c-32.88-0.305-65.759-0.193-98.573-0.155c-0.065,11.71,0,23.373,0.043,35.08      c19.671,0.544,39.363,0.305,59.057,0.696c-4.961,17.038-16.299,32.879-33.467,39.037c-33.184,14.601-75.485-4.482-85.93-39.276      c-12.599-33.337,8.029-73.549,42.083-83.232c21.107-7.42,42.867,0.936,60.928,11.906c9.14-8.552,17.713-17.715,26.134-26.963      c-20.541-17.169-46.914-27.701-74.027-25.394C138.583,165.794,92.019,214.904,94.04,268.063L94.04,268.063z M94.04,268.063" fill="#DC4F42"/><path d="M359.511,223.76c-0.087,9.816-0.195,19.649-0.239,29.441c-9.857,0.089-19.649,0.149-29.441,0.196v29.332      c9.792,0.044,19.649,0.087,29.441,0.196c0.087,9.792,0.087,19.589,0.196,29.441c9.748,0,19.54-0.065,29.332,0      c0.044-9.853,0.087-19.649,0.196-29.485c9.792-0.043,19.627-0.108,29.419-0.152v-29.332c-9.792-0.046-19.627-0.09-29.419-0.196      c-0.071-9.792-0.152-19.625-0.196-29.417C379.008,223.76,369.26,223.76,359.511,223.76L359.511,223.76z M359.511,223.76" fill="#DC4F42"/><path d="M94.04,268.063c-2.021-53.16,44.543-102.269,97.746-102.903c27.113-2.307,53.486,8.225,74.027,25.394      c-8.421,9.248-16.994,18.412-26.134,26.963c-18.082-10.97-39.82-19.348-60.949-11.906c-34.054,9.683-54.683,49.896-42.062,83.21      c10.423,34.816,52.746,53.899,85.93,39.277c17.168-6.137,28.483-21.978,33.467-39.016c-19.693-0.392-39.386-0.152-59.057-0.696      c-0.065-11.707-0.109-23.37-0.065-35.08c32.836-0.063,65.715-0.15,98.595,0.133c2.002,28.702-2.22,59.405-20.89,82.449      c-25.524,32.879-72.722,42.524-111.128,29.615C122.785,352.122,93.147,311.083,94.04,268.063L94.04,268.063z M94.04,268.063" fill="#FFFFFF"/><path d="M359.511,223.76H388.8c0.044,9.816,0.125,19.649,0.196,29.441c9.792,0.089,19.627,0.149,29.419,0.196      v29.332c-9.792,0.044-19.627,0.087-29.419,0.152c-0.109,9.836-0.152,19.633-0.196,29.463c-9.792-0.043-19.605,0-29.332,0      c-0.109-9.83-0.109-19.627-0.196-29.419c-9.792-0.109-19.649-0.152-29.441-0.196v-29.332c9.792-0.068,19.584-0.106,29.441-0.196      C359.315,243.41,359.402,233.577,359.511,223.76L359.511,223.76z M359.511,223.76" fill="#FFFFFF"/></g></g></g></svg>