<?xml version="1.0" encoding="utf-8"?>
<!-- Generator: Adobe Illustrator 16.0.0, SVG Export Plug-In . SVG Version: 6.00 Build 0)  -->
<!DOCTYPE svg PUBLIC "-//W3C//DTD SVG 1.1//EN" "http://www.w3.org/Graphics/SVG/1.1/DTD/svg11.dtd">
<svg version="1.1" id="Layer_1" xmlns="http://www.w3.org/2000/svg" xmlns:xlink="http://www.w3.org/1999/xlink" x="0px" y="0px"
	 width="500px" height="500px" viewBox="4680 0 500 500" enable-background="new 4680 0 500 500" xml:space="preserve">
<g>
	<path fill="#020202" d="M4853,364c-0.8,0-1.8-0.2-2.5-0.5c-1.7-0.9-3-2.6-3-4.5V148.6c0-20.2,16.9-36.1,37.1-36.1h163.5
		c18.1,0,32.4,14,32.4,31.9v54.5c0,1.3-0.3,2.9-1.2,3.9c-0.9,0.9-2,1.8-3.3,1.8c0,0,0,0,0,0l-51.5-0.9V359c0,1.9-0.8,3.6-2.4,4.4
		c-1.6,0.9-3.5,0.7-5-0.3l-82.4-57.1l-78.8,57C4855,363.7,4854,364,4853,364z M4934.7,294.9c1,0,1.7,0.3,2.6,0.9l77.2,53.7V144.4
		c0-8.7,4-16.9,9.6-21.9h-139.5c-14.7,0-27.1,11.4-27.1,26.1v200.6l74-53.4C4932.4,295.2,4933.6,294.9,4934.7,294.9z M5024.5,193.6
		l46,0.3v-49.5c0-12.1-10-21.9-22.4-21.9h-0.4c-12.6,0-23.3,9.5-23.3,21.9V193.6z"/>
</g>
<g>
	<g>
		<path fill="#020202" d="M4884.8,278.5c-0.7,0-1.4-0.1-2.1-0.5c-2.5-1.2-3.6-4.1-2.4-6.6l42.7-92.5c0.8-1.7,2.5-2.9,4.4-2.9
			c1.9-0.1,3.7,1,4.6,2.7l48.4,92.5c1.3,2.4,0.3,5.5-2.1,6.7c-2.4,1.3-5.5,0.3-6.7-2.1l-43.7-83.5l-38.4,83.3
			C4888.5,277.4,4886.7,278.5,4884.8,278.5z"/>
	</g>
	<g>
		<path fill="#020202" d="M4953,241.5h-51c-2.8,0-5-2.2-5-5s2.2-5,5-5h51c2.8,0,5,2.2,5,5S4955.8,241.5,4953,241.5z"/>
	</g>
	<g>
		<path fill="#020202" d="M4972.5,213c-2.8,0-5-2.2-5-5v-33c0-2.8,2.2-5,5-5s5,2.2,5,5v33C4977.5,210.8,4975.3,213,4972.5,213z"/>
	</g>
	<g>
		<path fill="#020202" d="M4989,198.5h-33c-2.8,0-5-2.2-5-5s2.2-5,5-5h33c2.8,0,5,2.2,5,5S4991.8,198.5,4989,198.5z"/>
	</g>
</g>
</svg>
