<?xml version="1.0" encoding="utf-8"?>
<!-- Generator: Adobe Illustrator 16.0.0, SVG Export Plug-In . SVG Version: 6.00 Build 0)  -->
<!DOCTYPE svg PUBLIC "-//W3C//DTD SVG 1.1//EN" "http://www.w3.org/Graphics/SVG/1.1/DTD/svg11.dtd">
<svg version="1.1" id="Layer_1" xmlns="http://www.w3.org/2000/svg" xmlns:xlink="http://www.w3.org/1999/xlink" x="0px" y="0px"
	 width="500px" height="500px" viewBox="0 0 500 500" enable-background="new 0 0 500 500" xml:space="preserve">
<g>
	<path fill="#020202" d="M244.5,381.9c-3.5,0-6.9-1.4-9.4-4L118.3,261.2c-16.3-16.3-25.3-38-25.3-60.9c-0.1-23,8.9-44.7,25.2-61
		c16.3-16.3,37.9-25.2,60.8-25.2c23,0,44.7,9,61,25.3l4.6,4.6l4.5-4.5c16.3-16.3,37.9-25.3,61-25.3c23,0,44.7,9,60.9,25.2
		c16.3,16.3,25.2,37.9,25.1,61c0,23-9,44.7-25.3,61L253.9,378C251.4,380.5,248,381.9,244.5,381.9z"/>
</g>
</svg>
