<?xml version="1.0" encoding="utf-8"?>
<!-- Generator: Adobe Illustrator 16.0.0, SVG Export Plug-In . SVG Version: 6.00 Build 0)  -->
<!DOCTYPE svg PUBLIC "-//W3C//DTD SVG 1.1//EN" "http://www.w3.org/Graphics/SVG/1.1/DTD/svg11.dtd">
<svg version="1.1" id="Layer_1" xmlns="http://www.w3.org/2000/svg" xmlns:xlink="http://www.w3.org/1999/xlink" x="0px" y="0px"
	 width="500px" height="500px" viewBox="0 0 500 500" enable-background="new 0 0 500 500" xml:space="preserve">
<g>
	<path fill="#020202" d="M372,387h-94c-2.8,0-5-2.2-5-5v-89h-66v89c0,2.8-2.2,5-5,5h-92c-2.8,0-5-2.2-5-5V172c0-1.7,0.9-3.3,2.3-4.2
		l131-82c1.6-1,3.7-1,5.3,0l131,82c1.5,0.9,2.3,2.5,2.3,4.2v210C377,384.8,374.8,387,372,387z M283,377h84V174.8L241,95.9l-126,78.9
		V377h82v-89c0-2.8,2.2-5,5-5h76c2.8,0,5,2.2,5,5V377z"/>
</g>
</svg>
