<?xml version="1.0" ?><!DOCTYPE svg  PUBLIC '-//W3C//DTD SVG 1.0//EN'  'http://www.w3.org/TR/2001/REC-SVG-20010904/DTD/svg10.dtd'><svg enable-background="new 0 0 200 200" height="200px" id="Layer_1" version="1.0" viewBox="0 0 200 200" width="200px" xml:space="preserve" xmlns="http://www.w3.org/2000/svg" xmlns:xlink="http://www.w3.org/1999/xlink"><g id="New_Symbol"/><g id="New_Symbol_1_"/><g id="New_Symbol_1"/><g id="New_Symbol_9_2_"/><g id="New_Symbol_7"/><g id="New_Symbol_9_1_"/><g id="New_Symbol_9"/><g id="Nuevo_símbolo"/><g id="New_Symbol_10"/><g id="New_Symbol_12"/><g id="New_Symbol_14"/><g id="New_Symbol_15"/><g id="New_Symbol_16"/><g id="New_Symbol_17_1_"/><g id="New_Symbol_18"/><g id="New_Symbol_19"/><g id="New_Symbol_17"/><g><g><g><path d="M139,97H62V29l12.5,10.2l12.6-10.3L100,39.6l12.8-10.8L125,39.3l14-12.1V97z M65,94h71V33.6l-11,9.6l-12.3-10.5L100,43.5     L87.2,32.7L74.5,43.1L65,35.4V94z"/></g></g><g><g><path d="M147,106H54V94h93V106z M57,103h87v-6H57V103z"/></g></g><g><g><path d="M147,144.3c0,2-1.7,3.7-3.7,3.7h-19.6c-2,0-3.7-1.7-3.7-3.7v-5.6c0-2,1.7-3.7,3.7-3.7h19.6c2,0,3.7,1.7,3.7,3.7V144.3z      M144,138.7c0-0.4-0.3-0.7-0.7-0.7h-19.6c-0.4,0-0.7,0.3-0.7,0.7v5.6c0,0.4,0.3,0.7,0.7,0.7h19.6c0.4,0,0.7-0.3,0.7-0.7V138.7z"/></g></g><g><g><g><rect height="3.1" width="8.1" x="108.5" y="63.4"/></g></g><g><g><polygon points="77.2,63.4 106.6,63.4 106.6,63.4 106.6,66.5 77.2,66.5     "/></g></g><g><g><rect height="3.1" width="46" x="77.2" y="58.3"/></g></g><g><g><rect height="3.1" width="5.2" x="120.9" y="53"/></g></g><g><g><rect height="3.1" width="41.4" x="77.2" y="53"/></g></g><g><g><rect height="3.1" width="8.1" x="108.5" y="73.8"/></g></g><g><g><polygon points="77.2,77 106.6,77 106.6,77 106.6,73.8 77.2,73.8     "/></g></g><g><g><rect height="3.1" width="46" x="77.2" y="79"/></g></g><g><g><rect height="3.1" width="5.2" x="120.9" y="84.2"/></g></g><g><g><rect height="3.1" width="41.4" x="77.2" y="84.2"/></g></g></g><g><g><path d="M162,173H37v-72.6C37,86.9,48.7,75,63.8,72.7l0.3,3C50.4,77.7,40,88.4,40,100.4V170h119v-69.6c0-11.7-8.7-21.7-21.4-24.4     l0.5-2.9c14.2,3,23.9,14.2,23.9,27.3V173z"/></g></g><g><g><rect height="3" width="90" x="57" y="119"/></g></g></g></svg>