<?xml version="1.0" ?><svg enable-background="new 0 0 144 144" id="Layer_1" version="1.1" viewBox="0 0 144 144" xml:space="preserve" xmlns="http://www.w3.org/2000/svg" xmlns:xlink="http://www.w3.org/1999/xlink"><g><g><path d="M93.8,115.9H50.2c-2.5,0-4.6-2.1-4.6-4.6V32.7c0-2.5,2.1-4.6,4.6-4.6h43.5c2.5,0,4.6,2.1,4.6,4.6v78.6    C98.4,113.8,96.3,115.9,93.8,115.9z M50.2,29.6c-1.7,0-3.1,1.4-3.1,3.1v78.6c0,1.7,1.4,3.1,3.1,3.1h43.5c1.7,0,3.1-1.4,3.1-3.1    V32.7c0-1.7-1.4-3.1-3.1-3.1H50.2z" fill="#231F20"/></g><g><path d="M92.2,98.6H51.8V36.2h40.4V98.6z M53.3,97.1h37.4V37.7H53.3V97.1z" fill="#231F20"/></g><g><path d="M72,110.7c-2.6,0-4.6-2.1-4.6-4.6s2.1-4.6,4.6-4.6c2.6,0,4.6,2.1,4.6,4.6S74.6,110.7,72,110.7z M72,103    c-1.7,0-3.1,1.4-3.1,3.1s1.4,3.1,3.1,3.1c1.7,0,3.1-1.4,3.1-3.1S73.7,103,72,103z" fill="#231F20"/></g><g><path d="M79.3,33.7H64.7c-0.4,0-0.8-0.3-0.8-0.8s0.3-0.8,0.8-0.8h14.6c0.4,0,0.8,0.3,0.8,0.8S79.7,33.7,79.3,33.7z    " fill="#231F20"/></g><g><path d="M59.1,58.5c-0.2,0-0.4-0.1-0.5-0.2c-0.3-0.3-0.3-0.8,0-1.1l13-13c0.3-0.3,0.8-0.3,1.1,0s0.3,0.8,0,1.1    l-13,13C59.4,58.4,59.2,58.5,59.1,58.5z" fill="#231F20"/></g><g><path d="M60.6,79.6c-0.2,0-0.4-0.1-0.5-0.2c-0.3-0.3-0.3-0.8,0-1.1l21.9-21.9c0.3-0.3,0.8-0.3,1.1,0s0.3,0.8,0,1.1    L61.1,79.3C60.9,79.5,60.7,79.6,60.6,79.6z" fill="#231F20"/></g><g><path d="M73.8,87.8c-0.2,0-0.4-0.1-0.5-0.2c-0.3-0.3-0.3-0.8,0-1.1l7.6-7.6c0.3-0.3,0.8-0.3,1.1,0s0.3,0.8,0,1.1    l-7.6,7.6C74.2,87.7,74,87.8,73.8,87.8z" fill="#231F20"/></g></g></svg>