<?xml version="1.0" encoding="utf-8"?>
<!-- Generator: Adobe Illustrator 16.0.0, SVG Export Plug-In . SVG Version: 6.00 Build 0)  -->
<!DOCTYPE svg PUBLIC "-//W3C//DTD SVG 1.1//EN" "http://www.w3.org/Graphics/SVG/1.1/DTD/svg11.dtd">
<svg version="1.1" id="Layer_1" xmlns="http://www.w3.org/2000/svg" xmlns:xlink="http://www.w3.org/1999/xlink" x="0px" y="0px"
	 width="500px" height="500px" viewBox="0 0 500 500" enable-background="new 0 0 500 500" xml:space="preserve">
<g>
	<g>
		<path fill="#020202" d="M350,397H148c-13.8,0-25-11.2-25-25V205c0-13.8,11.2-25,25-25h202c13.8,0,25,11.2,25,25v167
			C375,385.8,363.8,397,350,397z M148,190c-8.3,0-15,6.7-15,15v167c0,8.3,6.7,15,15,15h202c8.3,0,15-6.7,15-15V205
			c0-8.3-6.7-15-15-15H148z"/>
	</g>
</g>
<g>
	<path fill="#020202" d="M333,187c-2.8,0-5-2.2-5-5v-32.2c0-43.4-35.4-78.8-79-78.8s-79,35.3-79,78.8V182c0,2.8-2.2,5-5,5
		s-5-2.2-5-5v-32.2c0-49,39.9-88.8,89-88.8s89,39.8,89,88.8V182C338,184.8,335.8,187,333,187z"/>
</g>
<g>
	<path fill="#020202" d="M249,332c-13.2,0-24-10.8-24-24v-40c0-13.2,10.8-24,24-24s24,10.8,24,24v40C273,321.2,262.2,332,249,332z
		 M249,254c-7.7,0-14,6.3-14,14v40c0,7.7,6.3,14,14,14s14-6.3,14-14v-40C263,260.3,256.7,254,249,254z"/>
</g>
</svg>
