<?xml version="1.0" encoding="utf-8"?>
<!-- Generator: Adobe Illustrator 16.0.0, SVG Export Plug-In . SVG Version: 6.00 Build 0)  -->
<!DOCTYPE svg PUBLIC "-//W3C//DTD SVG 1.1//EN" "http://www.w3.org/Graphics/SVG/1.1/DTD/svg11.dtd">
<svg version="1.1" id="Layer_1" xmlns="http://www.w3.org/2000/svg" xmlns:xlink="http://www.w3.org/1999/xlink" x="0px" y="0px"
	 width="500px" height="500px" viewBox="0 0 500 500" enable-background="new 0 0 500 500" xml:space="preserve">
<g>
	<path fill="#020202" d="M297,384H167.8c-24,0-42.8-18.4-42.8-42V144.5c0-11.5,4.5-22.2,12.5-30.2c8.1-8,18.8-12.3,30.3-12.3H297
		c23.6,0,42,18.7,42,42.5V164c0,2.8-2.2,5-5,5s-5-2.2-5-5v-19.5c0-18.2-14.1-32.5-32-32.5H167.8c-18.4,0-32.8,14.3-32.8,32.5V342
		c0,17.9,14.4,32,32.8,32H297c18.3,0,32-13.7,32-32v-20c0-2.8,2.2-5,5-5s5,2.2,5,5v20c0,11.5-4.3,22.1-12.1,29.9
		C319.1,379.7,308.5,384,297,384z"/>
</g>
<g>
	<path fill="#020202" d="M276.5,306c-1.3,0-2.6-0.5-3.5-1.5l-57.7-57.7c-2-2-2-5.1,0-7.1L273,182c2-2,5.1-2,7.1,0c2,2,2,5.1,0,7.1
		l-54.2,54.2l54.2,54.2c2,2,2,5.1,0,7.1C279.1,305.5,277.8,306,276.5,306z"/>
</g>
<g>
	<path fill="#020202" d="M390,249H221c-2.8,0-5-2.2-5-5s2.2-5,5-5h169c2.8,0,5,2.2,5,5S392.8,249,390,249z"/>
</g>
</svg>
