<?xml version="1.0" encoding="utf-8"?>
<!-- Generator: Adobe Illustrator 16.0.0, SVG Export Plug-In . SVG Version: 6.00 Build 0)  -->
<!DOCTYPE svg PUBLIC "-//W3C//DTD SVG 1.1//EN" "http://www.w3.org/Graphics/SVG/1.1/DTD/svg11.dtd">
<svg version="1.1" id="Layer_1" xmlns="http://www.w3.org/2000/svg" xmlns:xlink="http://www.w3.org/1999/xlink" x="0px" y="0px"
	 width="500px" height="500px" viewBox="0 0 500 500" enable-background="new 0 0 500 500" xml:space="preserve">
<g>
	<path fill="#020202" d="M400,132H90c-2.8,0-5-2.2-5-5s2.2-5,5-5h310c2.8,0,5,2.2,5,5S402.8,132,400,132z"/>
</g>
<g>
	<path fill="#020202" d="M400,247H90c-2.8,0-5-2.2-5-5s2.2-5,5-5h310c2.8,0,5,2.2,5,5S402.8,247,400,247z"/>
</g>
<g>
	<path fill="#020202" d="M400,362H90c-2.8,0-5-2.2-5-5s2.2-5,5-5h310c2.8,0,5,2.2,5,5S402.8,362,400,362z"/>
</g>
</svg>
