<?xml version="1.0" encoding="utf-8"?>
<!-- Generator: Adobe Illustrator 16.0.0, SVG Export Plug-In . SVG Version: 6.00 Build 0)  -->
<!DOCTYPE svg PUBLIC "-//W3C//DTD SVG 1.1//EN" "http://www.w3.org/Graphics/SVG/1.1/DTD/svg11.dtd">
<svg version="1.1" id="Layer_1" xmlns="http://www.w3.org/2000/svg" xmlns:xlink="http://www.w3.org/1999/xlink" x="0px" y="0px"
	 width="500px" height="500px" viewBox="0 0 500 500" enable-background="new 0 0 500 500" xml:space="preserve">
<path fill="none" stroke="#020202" stroke-width="10" stroke-linecap="round" stroke-linejoin="round" stroke-miterlimit="10" d="
	M251.3,245.5"/>
<g>
	<g>
		<path fill="#020202" d="M442,349c0,13.8-11.2,25-25,25H85c-13.8,0-25-11.2-25-25V142c0-13.8,11.2-25,25-25h332
			c13.8,0,25,11.2,25,25V349z M432,142c0-8.3-6.7-15-15-15H85c-8.3,0-15,6.7-15,15v207c0,8.3,6.7,15,15,15h332c8.3,0,15-6.7,15-15
			V142z"/>
	</g>
	<g>
		<path fill="#020202" d="M252.6,265.3c-4.9,0-9.8-1.8-13.6-5.5l-170-126.8c-2.2-1.7-2.7-4.8-1-7c1.7-2.2,4.8-2.7,7-1l170.3,127
			c0.2,0.1,0.4,0.3,0.5,0.5c3.8,3.8,9.9,3.8,13.7,0c0.2-0.2,0.3-0.3,0.5-0.5l169.6-127c2.2-1.7,5.3-1.2,7,1c1.7,2.2,1.2,5.3-1,7
			L266.2,259.8C262.4,263.5,257.5,265.3,252.6,265.3z"/>
	</g>
	<g>
		<path fill="#020202" d="M384.6,325.3c-1,0-2.1-0.3-3-1l-103.8-77.7c-2.2-1.7-2.7-4.8-1-7c1.7-2.2,4.8-2.7,7-1l103.8,77.7
			c2.2,1.7,2.7,4.8,1,7C387.6,324.6,386.1,325.3,384.6,325.3z"/>
	</g>
	<g>
		<path fill="#020202" d="M119.9,325.3c-1.5,0-3-0.7-4-2c-1.7-2.2-1.2-5.3,1-7l104.3-77.8c2.2-1.7,5.3-1.2,7,1c1.7,2.2,1.2,5.3-1,7
			l-104.3,77.8C122,325,121,325.3,119.9,325.3z"/>
	</g>
</g>
</svg>
