<?xml version="1.0" encoding="utf-8"?>
<!-- Generator: Adobe Illustrator 16.0.0, SVG Export Plug-In . SVG Version: 6.00 Build 0)  -->
<!DOCTYPE svg PUBLIC "-//W3C//DTD SVG 1.1//EN" "http://www.w3.org/Graphics/SVG/1.1/DTD/svg11.dtd">
<svg version="1.1" id="Layer_1" xmlns="http://www.w3.org/2000/svg" xmlns:xlink="http://www.w3.org/1999/xlink" x="0px" y="0px"
	 width="500px" height="500px" viewBox="1040 0 500 500" enable-background="new 1040 0 500 500" xml:space="preserve">
<g>
	<g>
		<path fill="#020202" d="M1383.2,71.5h-199.6c-2.5,0-4.5,2.2-4.5,4.7v343.7c0,2.6,1.9,4.6,4.5,4.6h199.6c2.4,0,4.5-2,4.5-4.6V76.2
			C1387.7,73.7,1385.6,71.5,1383.2,71.5z M1378.6,415.3H1188v-59.2h190.6V415.3z M1378.6,347H1188V121.5h190.6V347z M1378.6,112.2
			H1188V80.9h190.6V112.2z M1262.3,102.1h29.5c2.5,0,4.5-2.1,4.5-4.7c0-2.5-2.1-4.6-4.5-4.6h-29.5c-2.5,0-4.5,2.1-4.5,4.6
			C1257.9,100,1259.8,102.1,1262.3,102.1z M1305.3,102.1c1.1,0,2.2-0.5,3-1.4c0.9-0.9,1.3-2,1.3-3.3c0-1.2-0.4-2.4-1.3-3.3
			c-0.7-0.9-2-1.3-3-1.3c-1.3,0-2.4,0.4-3.3,1.3c-0.9,0.9-1.3,2.1-1.3,3.3c0,1.3,0.4,2.4,1.3,3.3
			C1302.9,101.6,1304,102.1,1305.3,102.1z M1282.9,407.9h0.9c11.9,0,21.6-10,21.6-22.2c0-12.2-9.7-22.2-21.6-22.2h-0.9
			c-11.9,0-21.4,10-21.4,22.2C1261.5,397.9,1271,407.9,1282.9,407.9z M1282.9,372.8h0.9c7,0,12.6,5.8,12.6,12.9
			c0,7.2-5.6,12.9-12.6,12.9h-0.9c-7,0-12.5-5.8-12.5-12.9C1270.4,378.5,1275.9,372.8,1282.9,372.8z"/>
	</g>
</g>
</svg>
