<?xml version="1.0" encoding="utf-8"?>
<!-- Generator: Adobe Illustrator 16.0.0, SVG Export Plug-In . SVG Version: 6.00 Build 0)  -->
<!DOCTYPE svg PUBLIC "-//W3C//DTD SVG 1.1//EN" "http://www.w3.org/Graphics/SVG/1.1/DTD/svg11.dtd">
<svg version="1.1" id="Layer_1" xmlns="http://www.w3.org/2000/svg" xmlns:xlink="http://www.w3.org/1999/xlink" x="0px" y="0px"
	 width="500px" height="500px" viewBox="0 0 500 500" enable-background="new 0 0 500 500" xml:space="preserve">
<g>
	<path fill="#020202" d="M355,381H154c-2.8,0-5-2.2-5-5V110c0-2.8,2.2-5,5-5h147c2.8,0,5,2.2,5,5s-2.2,5-5,5H159v256h191V174
		c0-2.8,2.2-5,5-5s5,2.2,5,5v202C360,378.8,357.8,381,355,381z"/>
</g>
<g>
	<path fill="#020202" d="M355,177C355,177,355,177,355,177h-52c-2.8,0-5-2.2-5-5v-60c0-2.1,1.3-4,3.3-4.7c2-0.7,4.2-0.2,5.5,1.4
		l51.8,59.7c0.9,0.9,1.5,2.2,1.5,3.6C360,174.8,357.8,177,355,177z M308,167h36l-36-41.6V167z"/>
</g>
<g>
	<path fill="#020202" d="M237,174h-54c-2.8,0-5-2.2-5-5s2.2-5,5-5h54c2.8,0,5,2.2,5,5S239.8,174,237,174z"/>
</g>
<g>
	<path fill="#020202" d="M237,147h-54c-2.8,0-5-2.2-5-5s2.2-5,5-5h54c2.8,0,5,2.2,5,5S239.8,147,237,147z"/>
</g>
<g>
	<path fill="#020202" d="M291,212H183c-2.8,0-5-2.2-5-5s2.2-5,5-5h108c2.8,0,5,2.2,5,5S293.8,212,291,212z"/>
</g>
<g>
	<path fill="#020202" d="M321,248H183c-2.8,0-5-2.2-5-5s2.2-5,5-5h138c2.8,0,5,2.2,5,5S323.8,248,321,248z"/>
</g>
<g>
	<path fill="#020202" d="M311,288H183c-2.8,0-5-2.2-5-5s2.2-5,5-5h128c2.8,0,5,2.2,5,5S313.8,288,311,288z"/>
</g>
<g>
	<path fill="#020202" d="M273,326h-90c-2.8,0-5-2.2-5-5s2.2-5,5-5h90c2.8,0,5,2.2,5,5S275.8,326,273,326z"/>
</g>
</svg>
