<?xml version="1.0" encoding="utf-8"?>
<!-- Generator: Adobe Illustrator 16.0.0, SVG Export Plug-In . SVG Version: 6.00 Build 0)  -->
<!DOCTYPE svg PUBLIC "-//W3C//DTD SVG 1.1//EN" "http://www.w3.org/Graphics/SVG/1.1/DTD/svg11.dtd">
<svg version="1.1" id="Layer_1" xmlns="http://www.w3.org/2000/svg" xmlns:xlink="http://www.w3.org/1999/xlink" x="0px" y="0px"
	 width="500px" height="500px" viewBox="0 0 500 500" enable-background="new 0 0 500 500" xml:space="preserve">
<g>
	<path fill="#020202" d="M248,368.2c-0.8,0-1.5-0.2-2.2-0.5l-115-56.6c-1.7-0.8-2.8-2.6-2.8-4.5V178.5c0-1.9,1.1-3.6,2.8-4.5
		l115-56.6c1.4-0.7,3-0.7,4.4,0l115,57.6c1.7,0.8,2.8,2.6,2.8,4.5v128.1c0,1.9-1.1,3.7-2.8,4.5l-115,55.6
		C249.5,368.1,248.7,368.2,248,368.2z M138,303.5l110,54.1l110-53.1V182.6l-110-55.1l-110,54.1V303.5z"/>
</g>
<g>
	<path fill="#020202" d="M247.9,242.6c-0.8,0-1.6-0.2-2.3-0.6L130.7,183c-2.5-1.3-3.4-4.3-2.2-6.7c1.3-2.5,4.3-3.4,6.7-2.2L248,232
		l112.8-56.9c2.5-1.2,5.5-0.3,6.7,2.2c1.2,2.5,0.3,5.5-2.2,6.7l-115.1,58.1C249.5,242.4,248.7,242.6,247.9,242.6z"/>
</g>
<g>
	<path fill="#020202" d="M248,368c-2.8,0-5-2.2-5-5V238c0-2.8,2.2-5,5-5s5,2.2,5,5v125C253,365.8,250.8,368,248,368z"/>
</g>
<g>
	<path fill="#020202" d="M306,282c-2.8,0-5-2.2-5-5v-66l-106.7-59.7c-2.4-1.3-3.3-4.4-1.9-6.8c1.4-2.4,4.4-3.3,6.8-1.9l109.2,61.1
		c1.6,0.9,2.6,2.6,2.6,4.4V277C311,279.8,308.8,282,306,282z"/>
</g>
</svg>
