<?xml version="1.0" encoding="utf-8"?>
<!-- Generator: Adobe Illustrator 16.0.0, SVG Export Plug-In . SVG Version: 6.00 Build 0)  -->
<!DOCTYPE svg PUBLIC "-//W3C//DTD SVG 1.1//EN" "http://www.w3.org/Graphics/SVG/1.1/DTD/svg11.dtd">
<svg version="1.1" id="Layer_1" xmlns="http://www.w3.org/2000/svg" xmlns:xlink="http://www.w3.org/1999/xlink" x="0px" y="0px"
	 width="500px" height="500px" viewBox="0 0 500 500" enable-background="new 0 0 500 500" xml:space="preserve">
<g>
	<g>
		<g>
			<path fill="#020202" d="M117.6,386.5c-2.8,0-5-2.2-5-5c0-13.4,2.8-46.3,28.6-62.8c2.7-2.3,5.3-4.1,8-5.6l46-25.1
				c4.4-2.4,7.2-7.1,7.2-12.1v-17.1c-3.4-4.5-13.4-18.6-18.1-37.4c-4.9-3.9-7.7-9.7-7.7-15.9v-20.6c0-5,1.9-9.8,5.2-13.5v-27.8
				c0-2.8,2.2-5,5-5s5,2.2,5,5v29.9c0,1.4-0.6,2.8-1.7,3.7c-2.3,2-3.5,4.8-3.5,7.7v20.6c0,3.5,1.8,6.8,4.9,8.8
				c1.1,0.7,1.8,1.8,2.1,3.1c4.8,20.9,17.5,36.4,17.6,36.5c0.7,0.9,1.2,2,1.2,3.2v18.9c0,8.7-4.8,16.7-12.4,20.9l-46,25.1
				c-2.1,1.2-4.3,2.7-6.5,4.6c-0.2,0.2-0.4,0.3-0.6,0.5c-21.9,13.8-24.2,42.7-24.2,54.5C122.6,384.2,120.4,386.5,117.6,386.5z"/>
		</g>
		<g>
			<path fill="#020202" d="M368.6,386.5h-251c-2.8,0-5-2.2-5-5s2.2-5,5-5h245.9c-1.9-34.8-23.2-48.9-24.1-49.6
				c-0.2-0.1-0.4-0.3-0.6-0.5c-2.2-1.9-4.4-3.5-6.5-4.7l-46-25.1c-7.7-4.2-12.4-12.2-12.4-20.9v-18.9c0-1.2,0.4-2.3,1.2-3.2
				c0.1-0.1,12.8-15.6,17.6-36.5c0.3-1.3,1.1-2.4,2.1-3.1c3.1-2,4.9-5.3,4.9-8.8v-20.6c0-3-1.2-5.7-3.5-7.7
				c-1.1-0.9-1.7-2.3-1.7-3.7v-29.9c0-0.3,0-0.5,0.1-0.8c0-0.1,1.9-13.8-7.8-25c-9-10.4-24.9-15.6-47.3-15.6c-0.1,0-0.3,0-0.4,0
				c-0.2,0-22.2-1.6-36,11.2c-7.5,7-11.3,17.1-11.3,30.2c0,2.8-2.2,5-5,5s-5-2.2-5-5c0-16,4.9-28.7,14.6-37.6
				c16.4-15.1,40.6-14,43.3-13.8c25.4,0,43.9,6.5,54.8,19.2c11.7,13.6,10.4,29.6,10,32.5v27.5c3.3,3.7,5.2,8.5,5.2,13.5v20.6
				c0,6.2-2.8,12-7.7,15.9c-4.7,18.8-14.7,32.9-18.1,37.4v17.1c0,5,2.8,9.7,7.2,12.1l46,25.1c2.7,1.5,5.3,3.3,8,5.7
				c3.5,2.3,28.5,20.7,28.5,62.8C373.6,384.2,371.4,386.5,368.6,386.5z"/>
		</g>
	</g>
</g>
</svg>
