<?xml version="1.0" encoding="utf-8"?>
<!-- Generator: Adobe Illustrator 16.0.0, SVG Export Plug-In . SVG Version: 6.00 Build 0)  -->
<!DOCTYPE svg PUBLIC "-//W3C//DTD SVG 1.1//EN" "http://www.w3.org/Graphics/SVG/1.1/DTD/svg11.dtd">
<svg version="1.1" id="Layer_1" xmlns="http://www.w3.org/2000/svg" xmlns:xlink="http://www.w3.org/1999/xlink" x="0px" y="0px"
	 width="500px" height="500px" viewBox="2600 0 500 500" enable-background="new 2600 0 500 500" xml:space="preserve">
<g>
	<path fill="#020202" d="M2722,369.1c-0.6,0-1.6-0.1-2.2-0.4c-1.9-0.8-3.3-2.6-3.3-4.6V145c0-2.8,2.7-4.5,5.5-4.5h227
		c2.8,0,4.5,1.7,4.5,4.5v168c0,2.8-1.7,5.5-4.5,5.5h-173.4l-50.1,49.4C2724.6,368.8,2723.3,369.1,2722,369.1z M2726.5,150.5v201.6
		l43.3-42.4c0.9-0.9,2.5-1.2,3.8-1.2h169.9v-158H2726.5z"/>
</g>
<g>
	<g>
		<path fill="#020202" d="M2844.5,272c-2.8,0-5-2.2-5-5v-25c0-2.8,2.5-5,5.3-5c14.1,0,25.3-11,25.3-25c0-13.8-11.1-25-24.8-25
			c-7,0-13.8,3-18.6,8.2c-4.2,4.6-6.5,10.6-6.5,16.8c0,2.8-2.2,5-5,5s-5-2.2-5-5c0-8.7,3.3-17.1,9.2-23.5c6.7-7.3,16.1-11.5,26-11.5
			c19.2,0,34.6,15.7,34.6,35c0,17.9-12.4,32.3-30.4,34.7V267C2849.5,269.8,2847.3,272,2844.5,272z"/>
	</g>
	<g>
		<path fill="#020202" d="M2844.5,294c-2.8,0-5-2.2-5-5v-3c0-2.8,2.2-5,5-5s5,2.2,5,5v3C2849.5,291.8,2847.3,294,2844.5,294z"/>
	</g>
</g>
<g>
	<path fill="#020202" d="M2980,291.5h-18c-2.8,0-5-2.2-5-5s2.2-5,5-5h12.5v-160h-214V132c0,2.8-2.2,5-5,5s-5-2.2-5-5v-16
		c0-2.8,2.7-4.5,5.5-4.5h224c2.8,0,4.5,1.7,4.5,4.5v170C2984.5,288.8,2982.8,291.5,2980,291.5z"/>
</g>
</svg>
