<?xml version="1.0" encoding="utf-8"?>
<!-- Generator: Adobe Illustrator 16.0.0, SVG Export Plug-In . SVG Version: 6.00 Build 0)  -->
<!DOCTYPE svg PUBLIC "-//W3C//DTD SVG 1.1//EN" "http://www.w3.org/Graphics/SVG/1.1/DTD/svg11.dtd">
<svg version="1.1" id="Layer_1" xmlns="http://www.w3.org/2000/svg" xmlns:xlink="http://www.w3.org/1999/xlink" x="0px" y="0px"
	 width="500px" height="500px" viewBox="0 0 500 500" enable-background="new 0 0 500 500" xml:space="preserve">
<g>
	<path fill="#020202" d="M213.5,359C133.8,359,69,294.2,69,214.5S133.8,70,213.5,70S358,134.8,358,214.5S293.2,359,213.5,359z
		 M213.5,80C139.3,80,79,140.3,79,214.5S139.3,349,213.5,349S348,288.7,348,214.5S287.7,80,213.5,80z"/>
</g>
<g>
	<path fill="#020202" d="M415.3,420.7c-1.3,0-2.6-0.5-3.6-1.5L310.2,315c-1.9-2-1.9-5.1,0.1-7.1s5.1-1.9,7.1,0.1l101.6,104.2
		c1.9,2,1.9,5.1-0.1,7.1C417.8,420.2,416.6,420.7,415.3,420.7z"/>
</g>
</svg>
