<?xml version="1.0" encoding="utf-8"?>
<!-- Generator: Adobe Illustrator 16.0.0, SVG Export Plug-In . SVG Version: 6.00 Build 0)  -->
<!DOCTYPE svg PUBLIC "-//W3C//DTD SVG 1.1//EN" "http://www.w3.org/Graphics/SVG/1.1/DTD/svg11.dtd">
<svg version="1.1" id="Layer_1" xmlns="http://www.w3.org/2000/svg" xmlns:xlink="http://www.w3.org/1999/xlink" x="0px" y="0px"
	 width="500px" height="500px" viewBox="0 0 500 500" enable-background="new 0 0 500 500" xml:space="preserve">
<g>
	<g>
		<g>
			<path fill="#020202" d="M261.4,355.4h-17c-8.3,0-15.3-5.9-16.7-14.1l-1.8-10.6c-2.7-1-5.3-2-7.8-3.2l-8.9,6.3
				c-2.8,2-6.2,3.1-9.8,3.1c-4.5,0-8.7-1.8-11.9-5l-12-12c-5.9-5.8-6.7-15-1.8-21.8l6.2-8.6c-1.3-2.7-2.5-5.4-3.5-8.2l-10.7-1.8
				c-8.2-1.4-14.1-8.4-14.1-16.7v-16.9c0-8.3,5.9-15.3,14.1-16.7l10.4-1.7c1-2.8,2.1-5.6,3.4-8.3l-6.3-8.9c-4.8-6.7-4-15.9,1.8-21.8
				l12-12c3.1-3.2,7.4-5,11.9-5c3.6,0,7,1.1,9.8,3.2l8.6,6.2c2.7-1.3,5.4-2.5,8.2-3.5l1.8-10.7c1.4-8.2,8.4-14.1,16.7-14.1h16.9
				c8.3,0,15.3,5.9,16.7,14.1l1.7,10.4c2.9,1,5.9,2.2,8.7,3.6l8.7-6.2c2.8-2,6.2-3.1,9.8-3.1c4.5,0,8.7,1.8,11.9,5l12,12
				c5.9,5.8,6.7,15,1.8,21.8l-6.2,8.7c1.3,2.7,2.4,5.4,3.4,8.2l10.6,1.8c8.2,1.4,14.1,8.4,14,16.7l0,16.9c0,8.3-5.9,15.3-14.1,16.7
				l-10.5,1.8c-1,2.7-2.1,5.5-3.4,8.2l6.2,8.7c4.8,6.8,4,15.9-1.8,21.8l-12,12c-3.2,3.2-7.4,5-11.9,5c-3.6,0-7-1.1-9.8-3.2l-8.7-6.2
				c-2.7,1.3-5.4,2.4-8.2,3.4l-1.8,10.5C276.7,349.5,269.7,355.4,261.4,355.4z M217.7,316.7c0.8,0,1.6,0.2,2.3,0.6
				c3.7,1.9,7.7,3.6,11.9,4.9c1.8,0.6,3.1,2.1,3.4,4l2.3,13.5c0.6,3.3,3.4,5.8,6.8,5.8h17c3.4,0,6.3-2.4,6.8-5.8l2.3-13.5
				c0.3-1.9,1.7-3.4,3.5-3.9c4.3-1.3,8.4-3,12.3-5.1c1.7-0.9,3.7-0.7,5.2,0.4l11.1,8c1.2,0.8,2.5,1.3,4,1.3c1.8,0,3.6-0.7,4.9-2
				l12-12c2.4-2.4,2.7-6.1,0.8-8.9l-8-11.2c-1.1-1.5-1.2-3.6-0.4-5.2c2.1-4.1,3.9-8.2,5.1-12.2c0.6-1.8,2.1-3.2,4-3.5l13.5-2.3
				c3.3-0.6,5.8-3.4,5.8-6.8v-16.9c0-3.4-2.3-6.3-5.7-6.8l-13.5-2.3c-1.9-0.3-3.4-1.6-3.9-3.5c-1.3-4.3-3-8.4-5.1-12.3
				c-0.9-1.7-0.7-3.7,0.4-5.2l8-11.1c2-2.8,1.7-6.5-0.7-8.9l-12-12c-1.3-1.3-3-2-4.9-2c-1.4,0-2.8,0.4-4,1.3l-11.2,8
				c-1.5,1.1-3.6,1.2-5.2,0.3c-4.1-2.2-8.4-3.9-12.7-5.2c-1.8-0.5-3.2-2.1-3.5-4l-2.3-13.4c-0.6-3.3-3.4-5.8-6.8-5.8h-16.9
				c-3.4,0-6.3,2.4-6.8,5.8l-2.3,13.7c-0.3,1.9-1.6,3.4-3.4,3.9c-4.2,1.3-8.3,3-12.2,5.1c-1.7,0.9-3.7,0.8-5.3-0.3l-11.1-8
				c-1.2-0.8-2.5-1.3-4-1.3c-1.9,0-3.6,0.7-4.8,2l-12.1,12c-2.4,2.4-2.7,6.1-0.7,8.9l8,11.3c1.1,1.5,1.2,3.6,0.4,5.2
				c-2,3.9-3.7,8-5,12.3c-0.5,1.8-2.1,3.2-4,3.5l-13.4,2.3c-3.3,0.6-5.8,3.4-5.8,6.8V263c0,3.4,2.4,6.3,5.8,6.8l13.7,2.3
				c1.9,0.3,3.4,1.6,3.9,3.4c1.3,4.2,3,8.3,5.1,12.2c0.9,1.7,0.8,3.7-0.3,5.3l-7.9,11c-2,2.8-1.7,6.5,0.7,8.9l12,12
				c1.3,1.3,3,2,4.9,2c1.4,0,2.8-0.4,4-1.3l11.3-8.1C215.7,317,216.7,316.7,217.7,316.7z"/>
		</g>
	</g>
</g>
<g>
	<path fill="#020202" d="M252.5,293.1c-21.5,0-39-17.5-39-39s17.5-39,39-39c21.5,0,39,17.5,39,39S274,293.1,252.5,293.1z
		 M252.5,225.1c-16,0-29,13-29,29c0,16,13,29,29,29c16,0,29-13,29-29C281.5,238.1,268.5,225.1,252.5,225.1z"/>
</g>
</svg>
