<?xml version="1.0" encoding="utf-8"?>
<!-- Generator: Adobe Illustrator 16.0.0, SVG Export Plug-In . SVG Version: 6.00 Build 0)  -->
<!DOCTYPE svg PUBLIC "-//W3C//DTD SVG 1.1//EN" "http://www.w3.org/Graphics/SVG/1.1/DTD/svg11.dtd">
<svg version="1.1" id="Layer_1" xmlns="http://www.w3.org/2000/svg" xmlns:xlink="http://www.w3.org/1999/xlink" x="0px" y="0px"
	 width="500px" height="500px" viewBox="2080 0 500 500" enable-background="new 2080 0 500 500" xml:space="preserve">
<g>
	<path fill="#020202" d="M2416.2,196.4c-28.5,0-51.7-23.2-51.7-51.7s23.2-51.7,51.7-51.7s51.7,23.2,51.7,51.7
		S2444.7,196.4,2416.2,196.4z M2416.2,102.9c-23,0-41.7,18.7-41.7,41.7s18.7,41.7,41.7,41.7s41.7-18.7,41.7-41.7
		S2439.2,102.9,2416.2,102.9z"/>
</g>
<g>
	<path fill="#020202" d="M2243.2,293.4c-28.5,0-51.7-23.2-51.7-51.7s23.2-51.7,51.7-51.7s51.7,23.2,51.7,51.7
		S2271.7,293.4,2243.2,293.4z M2243.2,199.9c-23,0-41.7,18.7-41.7,41.7s18.7,41.7,41.7,41.7s41.7-18.7,41.7-41.7
		S2266.2,199.9,2243.2,199.9z"/>
</g>
<g>
	<path fill="#020202" d="M2416.2,386.4c-28.5,0-51.7-23.2-51.7-51.7s23.2-51.7,51.7-51.7s51.7,23.2,51.7,51.7
		S2444.7,386.4,2416.2,386.4z M2416.2,292.9c-23,0-41.7,18.7-41.7,41.7s18.7,41.7,41.7,41.7s41.7-18.7,41.7-41.7
		S2439.2,292.9,2416.2,292.9z"/>
</g>
<g>
	<path fill="#020202" d="M2285.1,226c-1.7,0-3.3-0.9-4.3-2.4c-1.4-2.4-0.7-5.4,1.7-6.9l89.6-54.8c2.4-1.4,5.4-0.7,6.9,1.7
		c1.4,2.4,0.7,5.4-1.7,6.9l-89.6,54.8C2286.9,225.7,2286,226,2285.1,226z"/>
</g>
<g>
	<path fill="#020202" d="M2374.7,318.1c-0.8,0-1.7-0.2-2.5-0.7l-89.6-50.8c-2.4-1.4-3.2-4.4-1.9-6.8s4.4-3.2,6.8-1.9l89.6,50.8
		c2.4,1.4,3.2,4.4,1.9,6.8C2378.1,317.2,2376.4,318.1,2374.7,318.1z"/>
</g>
</svg>
