<?xml version="1.0" encoding="utf-8"?>
<!-- Generator: Adobe Illustrator 16.0.0, SVG Export Plug-In . SVG Version: 6.00 Build 0)  -->
<!DOCTYPE svg PUBLIC "-//W3C//DTD SVG 1.1//EN" "http://www.w3.org/Graphics/SVG/1.1/DTD/svg11.dtd">
<svg version="1.1" id="Layer_1" xmlns="http://www.w3.org/2000/svg" xmlns:xlink="http://www.w3.org/1999/xlink" x="0px" y="0px"
	 width="500px" height="500px" viewBox="0 0 500 500" enable-background="new 0 0 500 500" xml:space="preserve">
<g>
	<path fill="#FFFFFF" d="M430.4,208.3l-122.8-17.8L252.7,79.1l-54.9,111.3L74.9,208.3l88.9,86.6l-21,122.3l109.9-57.8l109.9,57.8
		l-21-122.3L430.4,208.3z M355.9,408.1L255,355c-0.7-0.4-1.5-0.6-2.3-0.6s-1.6,0.2-2.3,0.6l-100.9,53l19.3-112.3
		c0.3-1.6-0.3-3.3-1.4-4.4l-81.6-79.6l112.8-16.4c1.6-0.2,3-1.3,3.8-2.7l50.5-102.2l50.4,102.2c0.7,1.5,2.1,2.5,3.8,2.7l112.8,16.4
		l-81.6,79.6c-1.2,1.2-1.7,2.8-1.4,4.4L355.9,408.1z"/>
	<path fill="#020202" d="M435.2,206.7c-0.6-1.8-2.1-3.1-4-3.4l-120.2-17.5l-53.8-109c-0.8-1.7-2.6-2.8-4.5-2.8
		c-1.9,0-3.6,1.1-4.5,2.8l-53.8,109L74.2,203.3c-1.9,0.3-3.5,1.6-4,3.4c-0.6,1.8-0.1,3.8,1.3,5.1l87,84.8l-20.5,119.7
		c-0.3,1.9,0.5,3.8,2,4.9s3.6,1.3,5.3,0.4l107.5-56.5l107.5,56.5c0.7,0.4,1.5,0.6,2.3,0.6c1,0,2.1-0.3,2.9-1c1.5-1.1,2.3-3,2-4.9
		l-20.5-119.7l87-84.8C435.3,210.5,435.8,208.5,435.2,206.7z M338.1,291.3c-1.2,1.2-1.7,2.8-1.4,4.4l19.3,112.3L255,355
		c-0.7-0.4-1.5-0.6-2.3-0.6s-1.6,0.2-2.3,0.6l-100.9,53l19.3-112.3c0.3-1.6-0.3-3.3-1.4-4.4l-81.6-79.6l112.8-16.4
		c1.6-0.2,3-1.3,3.8-2.7l50.5-102.2l50.4,102.2c0.7,1.5,2.1,2.5,3.8,2.7l112.8,16.4L338.1,291.3z"/>
</g>
</svg>
