<?xml version="1.0" encoding="utf-8"?>
<!-- Generator: Adobe Illustrator 16.0.0, SVG Export Plug-In . SVG Version: 6.00 Build 0)  -->
<!DOCTYPE svg PUBLIC "-//W3C//DTD SVG 1.1//EN" "http://www.w3.org/Graphics/SVG/1.1/DTD/svg11.dtd">
<svg version="1.1" id="Layer_1" xmlns="http://www.w3.org/2000/svg" xmlns:xlink="http://www.w3.org/1999/xlink" x="0px" y="0px"
	 width="500px" height="500px" viewBox="0 0 500 500" enable-background="new 0 0 500 500" xml:space="preserve">
<path fill="#020202" d="M441.7,143.3L188.1,362.9c-3.7,3.2-8.3,4.9-13.1,4.9c-0.6,0-1.2,0-1.7-0.1c-5.4-0.5-10.4-3.1-13.8-7.3
	L53.6,230.6c-7-8.6-5.7-21.2,2.9-28.1c8.6-7,21.2-5.7,28.1,2.9l5.9,7.3l86.9,106.5l208.2-180.3l29.8-25.8c8.3-7.2,21-6.3,28.2,2
	C450.9,123.4,450,136,441.7,143.3z"/>
</svg>
