<?xml version="1.0" encoding="utf-8"?>
<!-- Generator: Adobe Illustrator 16.0.0, SVG Export Plug-In . SVG Version: 6.00 Build 0)  -->
<!DOCTYPE svg PUBLIC "-//W3C//DTD SVG 1.1//EN" "http://www.w3.org/Graphics/SVG/1.1/DTD/svg11.dtd">
<svg version="1.1" id="Layer_1" xmlns="http://www.w3.org/2000/svg" xmlns:xlink="http://www.w3.org/1999/xlink" x="0px" y="0px"
	 width="500px" height="500px" viewBox="0 0 500 500" enable-background="new 0 0 500 500" xml:space="preserve">
<g>
	<path fill="#FFFFFF" d="M300.4,308.7c-1,1-2.3,1.5-3.5,1.5c-1.3,0-2.6-0.5-3.5-1.5l-3.7-3.7L253,268.3V346h-10v-75.7L208.3,305
		l-3.7,3.7c-1.9,2-5.1,2-7.1,0c-2-2-2-5.1,0-7.1l46.2-46.2c0.4-0.7,1-1.3,1.7-1.7l0,0c1.9-2,5.1-2,7.1,0l47.9,47.9
		C302.4,303.5,302.4,306.7,300.4,308.7z"/>
	<path fill="#FFFFFF" d="M442.1,259c0,48.1-39,87-87.1,87h-71c0-2.8,2.2-5,5-5h66c45.3,0,82.1-36.8,82.1-82c0-44.2-35.9-81-80-82
		c-2.5-0.1-4.5-1.9-4.8-4.3c-6.6-49.4-49.2-86.7-99.2-86.7c-50.2,0-92.9,37.5-99.3,87.2c-0.4,2.7-2.8,4.6-5.5,4.3
		c-3.1-0.3-6.2-0.5-9.2-0.5c-45.3,0-82.1,36.8-82.1,82C57,304.2,93.8,341,139,341h66c2.8,0,5,2.2,5,5h-71C91,346,52,307,52,258.9
		c0-48.1,39-87,87.1-87c3.3,0,6.6,0.2,9.8,0.5c6.6-51.7,50.8-91.6,104.2-91.6c53.3,0,97.3,39.7,104.1,91.1
		C404.3,173.1,442.1,211.6,442.1,259z"/>
	<path fill="#020202" d="M447.1,259c0,50.8-41.3,92-92.1,92h-66c-2.8,0-5-2.2-5-5s2.2-5,5-5h66c45.3,0,82.1-36.8,82.1-82
		c0-44.2-35.9-81-80-82c-2.5-0.1-4.5-1.9-4.8-4.3c-6.6-49.4-49.2-86.7-99.2-86.7c-50.2,0-92.9,37.5-99.3,87.2
		c-0.4,2.7-2.8,4.6-5.5,4.3c-3.1-0.3-6.2-0.5-9.2-0.5c-45.3,0-82.1,36.8-82.1,82C57,304.2,93.8,341,139,341h66c2.8,0,5,2.2,5,5
		s-2.2,5-5,5h-66C88.3,351,47,309.7,47,258.9c0-50.8,41.3-92,92.1-92c1.8,0,3.7,0.1,5.5,0.2c9-52.3,54.8-91.2,108.5-91.2
		c53.5,0,99.5,39,108.5,91.3c22.5,1.6,43.5,11.2,59.4,27.5C437.8,211.9,447.1,234.8,447.1,259z"/>
</g>
<g>
	<g>
		<polygon fill="#FFFFFF" points="296.9,305 289.7,305 253,268.3 253,305 243,305 243,270.3 208.3,305 201.1,305 248,258.1 
			249,257.1 253,261.1 		"/>
		<path fill="#020202" d="M300.4,308.7c-1,1-2.3,1.5-3.5,1.5c-1.3,0-2.6-0.5-3.5-1.5l-3.7-3.7L253,268.3l-4-4l-6,6L208.3,305
			l-3.7,3.7c-1.9,2-5.1,2-7.1,0c-2-2-2-5.1,0-7.1l46.2-46.2l1.7-1.7c1.9-2,5.1-2,7.1,0l47.9,47.9
			C302.4,303.5,302.4,306.7,300.4,308.7z"/>
	</g>
	<g>
		<line fill="none" x1="248" y1="258" x2="248" y2="399"/>
		<path fill="#020202" d="M253,258v141c0,2.8-2.2,5-5,5s-5-2.2-5-5V258c0-1,0.3-1.8,0.7-2.6c0.4-0.7,1-1.3,1.7-1.7
			c0.8-0.5,1.6-0.7,2.6-0.7C250.8,253,253,255.2,253,258z"/>
	</g>
</g>
</svg>
