<?xml version="1.0" encoding="utf-8"?>
<!-- Generator: Adobe Illustrator 16.0.0, SVG Export Plug-In . SVG Version: 6.00 Build 0)  -->
<!DOCTYPE svg PUBLIC "-//W3C//DTD SVG 1.1//EN" "http://www.w3.org/Graphics/SVG/1.1/DTD/svg11.dtd">
<svg version="1.1" id="Layer_1" xmlns="http://www.w3.org/2000/svg" xmlns:xlink="http://www.w3.org/1999/xlink" x="0px" y="0px"
	 width="500px" height="500px" viewBox="3640 0 500 500" enable-background="new 3640 0 500 500" xml:space="preserve">
<g>
	<path fill="#020202" d="M3943,315.5h-184c-8.3,0-15.5-7.2-15.5-15.5V138c0-8.3,7.2-14.5,15.5-14.5h262c8.3,0,14.5,6.2,14.5,14.5v81
		c0,2.8-2.2,5-5,5s-5-2.2-5-5v-81c0-2.8-1.7-4.5-4.5-4.5h-262c-2.8,0-5.5,1.7-5.5,4.5v162c0,2.8,2.7,5.5,5.5,5.5h184
		c2.8,0,5,2.2,5,5S3945.8,315.5,3943,315.5z"/>
</g>
<g>
	<g>
		<path fill="#020202" d="M3902,186.5h-108c-2.8,0-5-2.2-5-5s2.2-5,5-5h108c2.8,0,5,2.2,5,5S3904.8,186.5,3902,186.5z"/>
	</g>
	<g>
		<path fill="#020202" d="M3932,222.5h-138c-2.8,0-5-2.2-5-5s2.2-5,5-5h138c2.8,0,5,2.2,5,5S3934.8,222.5,3932,222.5z"/>
	</g>
	<g>
		<path fill="#020202" d="M3922,262.5h-128c-2.8,0-5-2.2-5-5s2.2-5,5-5h128c2.8,0,5,2.2,5,5S3924.8,262.5,3922,262.5z"/>
	</g>
</g>
<g>
	<path fill="#020202" d="M4009.8,357.6c-39.6,0-71.8-32.2-71.8-71.8s32.2-71.8,71.8-71.8s71.8,32.2,71.8,71.8
		S4049.4,357.6,4009.8,357.6z M4009.8,224c-34.1,0-61.8,27.7-61.8,61.8s27.7,61.8,61.8,61.8s61.8-27.7,61.8-61.8
		S4043.9,224,4009.8,224z"/>
</g>
<g>
	<path fill="#020202" d="M3986.8,313.8c-1.3,0-2.6-0.5-3.5-1.5c-2-2-2-5.1,0-7.1l50.2-50.2c2-2,5.1-2,7.1,0c2,2,2,5.1,0,7.1
		l-50.2,50.2C3989.3,313.3,3988,313.8,3986.8,313.8z"/>
</g>
<g>
	<path fill="#020202" d="M3990,281.2c-7.7,0-14-6.3-14-14c0-7.7,6.3-14,14-14c7.7,0,14,6.3,14,14
		C4004,274.9,3997.7,281.2,3990,281.2z M3990,263.2c-2.2,0-4,1.8-4,4c0,2.2,1.8,4,4,4c2.2,0,4-1.8,4-4
		C3994,265,3992.2,263.2,3990,263.2z"/>
</g>
<g>
	<path fill="#020202" d="M4031.3,316.5c-7.7,0-14-6.3-14-14c0-7.7,6.3-14,14-14c7.7,0,14,6.3,14,14
		C4045.3,310.2,4039,316.5,4031.3,316.5z M4031.3,298.5c-2.2,0-4,1.8-4,4c0,2.2,1.8,4,4,4c2.2,0,4-1.8,4-4
		C4035.3,300.3,4033.5,298.5,4031.3,298.5z"/>
</g>
</svg>
